<svg width="32" height="32" viewBox="0 0 32 32" fill="none" xmlns="http://www.w3.org/2000/svg">
<path d="M4.66602 6H7.2245C7.92022 6 8.26808 6 8.52997 6.18876C8.79185 6.37752 8.90186 6.70753 9.12186 7.36754L9.99935 10" stroke="white" stroke-linecap="round"/>
<path d="M23.3327 23.3333H10.7339C10.1227 23.3333 9.81714 23.3333 9.60583 23.2275C9.31268 23.0807 9.11006 22.7996 9.06355 22.4751C9.03003 22.2412 9.12667 21.9513 9.31993 21.3715V21.3715C9.53406 20.7291 9.64112 20.4079 9.82251 20.1581C10.0739 19.8119 10.4298 19.5554 10.8378 19.4263C11.1322 19.3333 11.4707 19.3333 12.1478 19.3333H19.3327" stroke="white" stroke-linecap="round" stroke-linejoin="round"/>
<path d="M19.6794 19.3333H13.9716C12.6923 19.3333 12.0527 19.3333 11.5518 19.003C11.0509 18.6727 10.7989 18.0848 10.295 16.909L9.12617 14.1818C8.31667 12.2929 7.91192 11.3485 8.35653 10.6743C8.80114 10 9.82863 10 11.8836 10H22.1644C24.4635 10 25.613 10 26.0466 10.7471C26.4801 11.4942 25.9098 12.4923 24.7692 14.4884L23.1523 17.3179C22.5904 18.3013 22.3094 18.793 21.8439 19.0632C21.3783 19.3333 20.812 19.3333 19.6794 19.3333Z" stroke="white" stroke-linecap="round"/>
<circle cx="22.6673" cy="26.6666" r="1.33333" fill="white" stroke="white" stroke-linecap="round"/>
<circle cx="11.9993" cy="26.6666" r="1.33333" fill="white" stroke="white" stroke-linecap="round"/>
</svg>
