<svg width="23" height="24" viewBox="0 0 23 24" fill="none" xmlns="http://www.w3.org/2000/svg">
<path d="M19.9993 21.6667C19.9993 22.403 19.4024 23 18.666 23C17.9296 23 17.3327 22.403 17.3327 21.6667C17.3327 20.9303 17.9296 20.3333 18.666 20.3333C19.4024 20.3333 19.9993 20.9303 19.9993 21.6667Z" fill="#FF8800"/>
<path d="M9.33268 21.6667C9.33268 22.403 8.73573 23 7.99935 23C7.26297 23 6.66602 22.403 6.66602 21.6667C6.66602 20.9303 7.26297 20.3333 7.99935 20.3333C8.73573 20.3333 9.33268 20.9303 9.33268 21.6667Z" fill="#FF8800"/>
<path d="M0.666016 1H3.2245C3.92022 1 4.26808 1 4.52997 1.18876C4.79185 1.37752 4.90186 1.70753 5.12186 2.36754L5.99935 5M19.3327 18.3333H6.73389C6.12272 18.3333 5.81714 18.3333 5.60583 18.2276C5.31268 18.0808 5.11006 17.7997 5.06356 17.4752C5.03003 17.2413 5.12667 16.9514 5.31994 16.3716C5.53406 15.7292 5.64112 15.408 5.82251 15.1582C6.07394 14.8119 6.42981 14.5554 6.83782 14.4264C7.13216 14.3333 7.47072 14.3333 8.14785 14.3333H15.3327M9.97027 14.3333H15.6781C16.8107 14.3333 17.377 14.3333 17.8426 14.0632C18.3081 13.793 18.5891 13.3013 19.151 12.3179L20.7679 9.48842C21.9085 7.49229 22.4788 6.49422 22.0453 5.74711C21.6117 5 20.4622 5 18.1631 5H7.8823C5.82732 5 4.79984 5 4.35523 5.67426C3.91062 6.34853 4.31537 7.29294 5.12487 9.18176L6.29369 11.909C6.7976 13.0848 7.04955 13.6727 7.55049 14.003C8.05143 14.3333 8.69104 14.3333 9.97027 14.3333ZM19.9993 21.6667C19.9993 22.403 19.4024 23 18.666 23C17.9296 23 17.3327 22.403 17.3327 21.6667C17.3327 20.9303 17.9296 20.3333 18.666 20.3333C19.4024 20.3333 19.9993 20.9303 19.9993 21.6667ZM9.33268 21.6667C9.33268 22.403 8.73573 23 7.99935 23C7.26297 23 6.66602 22.403 6.66602 21.6667C6.66602 20.9303 7.26297 20.3333 7.99935 20.3333C8.73573 20.3333 9.33268 20.9303 9.33268 21.6667Z" stroke="#FF8800" stroke-linecap="round"/>
</svg>
