<svg width="33" height="34" viewBox="0 0 33 34" fill="none" xmlns="http://www.w3.org/2000/svg">
<path d="M29.1044 30.8947C29.1044 31.9411 28.2561 32.7894 27.2097 32.7894C26.1633 32.7894 25.315 31.9411 25.315 30.8947C25.315 29.8483 26.1633 29 27.2097 29C28.2561 29 29.1044 29.8483 29.1044 30.8947Z" fill="#FF9720"/>
<path d="M13.9447 30.8947C13.9447 31.9411 13.0964 32.7894 12.05 32.7894C11.0035 32.7894 10.1552 31.9411 10.1552 30.8947C10.1552 29.8483 11.0035 29 12.05 29C13.0964 29 13.9447 29.8483 13.9447 30.8947Z" fill="#FF9720"/>
<path d="M1.62891 1.52631H5.26464C6.2533 1.52631 6.74763 1.52631 7.11978 1.79454C7.49194 2.06278 7.64826 2.53174 7.9609 3.46966L9.20785 7.21052M28.1552 26.1579H10.2517C9.38318 26.1579 8.94893 26.1579 8.64865 26.0075C8.23205 25.799 7.94413 25.3995 7.87804 24.9384C7.8304 24.606 7.96773 24.194 8.24237 23.3701C8.54665 22.4572 8.6988 22.0008 8.95655 21.6458C9.31385 21.1538 9.81956 20.7893 10.3994 20.6059C10.8176 20.4736 11.2988 20.4736 12.261 20.4736H22.471M14.8526 20.4737H22.9637C24.5732 20.4737 25.3779 20.4737 26.0395 20.0897C26.7011 19.7058 27.1004 19.0071 27.8989 17.6096L30.1966 13.5888C31.8175 10.7522 32.6279 9.33388 32.0118 8.2722C31.3957 7.21052 29.7622 7.21052 26.4951 7.21052H11.8855C8.96525 7.21052 7.50513 7.21052 6.87332 8.16868C6.24151 9.12684 6.81668 10.4689 7.96701 13.153L9.62797 17.0286C10.3441 18.6994 10.7021 19.5349 11.414 20.0043C12.1258 20.4737 13.0347 20.4737 14.8526 20.4737ZM29.1044 30.8947C29.1044 31.9411 28.2561 32.7894 27.2097 32.7894C26.1633 32.7894 25.315 31.9411 25.315 30.8947C25.315 29.8483 26.1633 29 27.2097 29C28.2561 29 29.1044 29.8483 29.1044 30.8947ZM13.9447 30.8947C13.9447 31.9411 13.0964 32.7894 12.05 32.7894C11.0035 32.7894 10.1552 31.9411 10.1552 30.8947C10.1552 29.8483 11.0035 29 12.05 29C13.0964 29 13.9447 29.8483 13.9447 30.8947Z" stroke="#FF9720" stroke-width="1.42105" stroke-linecap="round"/>
</svg>
