<svg width="26" height="25" viewBox="0 0 26 25" fill="none" xmlns="http://www.w3.org/2000/svg">
<path d="M2.21484 3.3981H4.19034C4.84043 3.3981 5.16548 3.3981 5.40552 3.57813C5.64555 3.75816 5.73657 4.0702 5.9186 4.6943L6.6491 7.1989" stroke="#1F71DF" stroke-width="0.900135" stroke-linecap="round"/>
<path d="M18.6856 18.6013H7.12294C6.73733 18.6013 6.54452 18.6013 6.40643 18.5554C6.02436 18.4286 5.77297 18.0635 5.79076 17.6614C5.79719 17.516 5.86597 17.3359 6.00352 16.9756V16.9756C6.14405 16.6076 6.21431 16.4236 6.3108 16.2712C6.57331 15.8566 6.99369 15.5671 7.47466 15.4697C7.65144 15.434 7.84842 15.434 8.24237 15.434H15.0576" stroke="#1F71DF" stroke-width="0.900135" stroke-linecap="round" stroke-linejoin="round"/>
<path d="M15.1709 15.4339H10.5739C9.40911 15.4339 8.8267 15.4339 8.37289 15.131C7.91907 14.8281 7.69566 14.2903 7.24883 13.2146L6.302 10.9352C5.59999 9.24516 5.24899 8.40015 5.64988 7.79952C6.05078 7.19889 6.96579 7.19889 8.79581 7.19889H17.2711C19.3129 7.19889 20.3339 7.19889 20.7256 7.86361C21.1173 8.52832 20.6226 9.42143 19.6333 11.2076L18.3206 13.5779C17.8194 14.4829 17.5687 14.9354 17.1457 15.1847C16.7227 15.4339 16.2055 15.4339 15.1709 15.4339Z" stroke="#1F71DF" stroke-width="0.900135" stroke-linecap="round"/>
<circle cx="16.7865" cy="21.7686" r="1.26693" fill="#1F71DF" stroke="#1F71DF" stroke-width="0.900135" stroke-linecap="round"/>
<circle cx="8.55209" cy="21.7686" r="1.26693" fill="#1F71DF" stroke="#1F71DF" stroke-width="0.900135" stroke-linecap="round"/>
</svg>
