<svg width="25" height="26" viewBox="0 0 25 26" fill="none" xmlns="http://www.w3.org/2000/svg">
<g clip-path="url(#clip0_60_6418)">
<path d="M20.5229 20.4846L18.4705 17.0851C18.4065 16.9787 18.2883 16.7818 18.052 16.6892C17.7368 16.569 17.4473 16.7286 17.3232 16.7965L15.266 17.9202C14.9292 18.1024 14.5549 18.2718 14.3245 18.1477C14.1936 18.0778 14.0931 17.9074 13.9749 17.6917L11.703 13.5428L9.56402 9.34207C9.4567 9.13133 9.36905 8.9452 9.38477 8.79651C9.41187 8.53504 9.76295 8.32234 10.1022 8.149L12.1905 7.08099C12.317 7.01649 12.6125 6.86482 12.6903 6.53982C12.7479 6.29856 12.6519 6.08729 12.6002 5.97308L10.9472 2.36033C10.7606 1.95311 10.505 1.39573 9.97374 1.10716C9.33804 0.761993 8.5837 0.960919 8.13365 1.08157C7.15181 1.34305 6.28223 1.61043 5.58448 2.23528C4.39722 3.30032 4.15396 5.01829 4.01905 6.54524C3.892 7.98157 4.07911 9.68231 4.57496 11.6002C4.99351 13.2217 5.6336 14.8072 6.47906 16.3159C7.2482 17.8611 8.19556 19.2822 9.29805 20.5417C10.6226 22.0534 11.8861 23.1347 13.1609 23.8487C14.2536 24.4613 15.4924 25.0856 16.754 25.0856C17.0366 25.0856 17.3203 25.0551 17.6039 24.9852C18.5139 24.7607 19.2239 24.1934 19.993 23.5297C20.3456 23.2244 20.9365 22.7142 21.0093 21.9953C21.0694 21.3916 20.7533 20.8677 20.5229 20.4846ZM19.4652 22.919C18.7768 23.5138 18.1475 24.02 17.4109 24.2013C16.1464 24.5134 14.7568 23.8181 13.5549 23.1455C12.378 22.4857 11.15 21.431 9.90474 20.0099C8.90367 18.8666 8.03511 17.5824 7.31866 16.1879C7.30942 16.1535 7.29585 16.1204 7.27828 16.0894C7.24935 16.0394 7.22078 15.9892 7.19258 15.9388C7.16575 15.8851 7.13932 15.8313 7.11329 15.7772C7.09751 15.7448 7.07747 15.7147 7.05372 15.6876C6.30626 14.3099 5.73555 12.8691 5.35592 11.3983C4.88321 9.56956 4.70347 7.96087 4.82266 6.61614C4.94381 5.24285 5.15455 3.70457 6.1231 2.83597C6.68741 2.33026 7.46143 2.09539 8.34088 1.86151C8.79342 1.74085 9.26314 1.63992 9.58863 1.81619C9.86143 1.96439 10.0333 2.30218 10.2135 2.69612L11.8738 6.33597C11.8601 6.34334 11.8433 6.35272 11.8231 6.36307L9.73482 7.4306C9.3857 7.60936 8.65894 7.98109 8.58214 8.71234C8.54029 9.11067 8.71656 9.45633 8.84508 9.70848L11.0033 13.9461L13.2673 18.0798C13.4037 18.328 13.5899 18.6687 13.9424 18.8587C14.5845 19.2054 15.3064 18.8154 15.6511 18.6293L17.7093 17.5056C17.7812 17.4662 17.8128 17.4544 17.7783 17.5007L19.8316 20.9022C20.0551 21.2724 20.2374 21.6043 20.2058 21.9145C20.1693 22.2828 19.8197 22.6128 19.4652 22.919Z" fill="#3A404B"/>
</g>
<defs>
<clipPath id="clip0_60_6418">
<rect width="25" height="25" fill="white" transform="translate(0 0.5)"/>
</clipPath>
</defs>
</svg>
