<svg width="25" height="25" viewBox="0 0 25 25" fill="none" xmlns="http://www.w3.org/2000/svg">
<path fill-rule="evenodd" clip-rule="evenodd" d="M21.0492 11.168C21.0492 17.5846 12.4992 23.0846 12.4992 23.0846C12.4992 23.0846 3.94922 17.5846 3.94922 11.168C3.94922 8.97993 4.85002 6.88151 6.45346 5.33434C8.05689 3.78716 10.2316 2.91797 12.4992 2.91797C14.7668 2.91797 16.9415 3.78716 18.545 5.33434C20.1484 6.88151 21.0492 8.97993 21.0492 11.168Z" stroke="#3A404B" stroke-width="0.8" stroke-linecap="round" stroke-linejoin="round"/>
<path d="M12.4984 13.918C14.0724 13.918 15.3484 12.6868 15.3484 11.168C15.3484 9.64919 14.0724 8.41797 12.4984 8.41797C10.9244 8.41797 9.64844 9.64919 9.64844 11.168C9.64844 12.6868 10.9244 13.918 12.4984 13.918Z" stroke="#3A404B" stroke-width="0.8" stroke-linecap="round" stroke-linejoin="round"/>
</svg>
