<svg width="24" height="18" viewBox="0 0 24 18" fill="none" xmlns="http://www.w3.org/2000/svg">
<path d="M6 3.1275V12.75C5.99985 13.7021 6.36185 14.6186 7.01256 15.3136C7.66327 16.0086 8.55397 16.43 9.504 16.4925L9.75 16.5H16.371C16.2159 16.9386 15.9287 17.3184 15.5488 17.587C15.169 17.8557 14.7152 17.9999 14.25 18H9C7.80653 18 6.66193 17.5259 5.81802 16.682C4.97411 15.8381 4.5 14.6935 4.5 13.5V5.25C4.49976 4.78451 4.64389 4.3304 4.91254 3.95026C5.18119 3.57012 5.56113 3.28266 6 3.1275ZM17.25 0C17.8467 0 18.419 0.237053 18.841 0.65901C19.2629 1.08097 19.5 1.65326 19.5 2.25V12.75C19.5 13.3467 19.2629 13.919 18.841 14.341C18.419 14.7629 17.8467 15 17.25 15H9.75C9.15326 15 8.58097 14.7629 8.15901 14.341C7.73705 13.919 7.5 13.3467 7.5 12.75V2.25C7.5 1.65326 7.73705 1.08097 8.15901 0.65901C8.58097 0.237053 9.15326 0 9.75 0H17.25ZM17.25 1.5H9.75C9.55109 1.5 9.36032 1.57902 9.21967 1.71967C9.07902 1.86032 9 2.05109 9 2.25V12.75C9 12.9489 9.07902 13.1397 9.21967 13.2803C9.36032 13.421 9.55109 13.5 9.75 13.5H17.25C17.4489 13.5 17.6397 13.421 17.7803 13.2803C17.921 13.1397 18 12.9489 18 12.75V2.25C18 2.05109 17.921 1.86032 17.7803 1.71967C17.6397 1.57902 17.4489 1.5 17.25 1.5Z" fill="#D7DADF"/>
</svg>
