<svg width="28" height="28" viewBox="0 0 28 28" fill="none" xmlns="http://www.w3.org/2000/svg">
<path d="M14.0009 15.5339L2.63457 26.9003C2.43235 27.1025 2.18391 27.2108 1.88924 27.2253C1.59457 27.2397 1.33168 27.1314 1.10057 26.9003C0.869461 26.6692 0.753906 26.4135 0.753906 26.1333C0.753906 25.853 0.869461 25.5974 1.10057 25.3663L12.4669 13.9999L1.10057 2.6336C0.89835 2.43137 0.790017 2.18293 0.775572 1.88826C0.761128 1.5936 0.869461 1.33071 1.10057 1.0996C1.33168 0.868485 1.58735 0.75293 1.86757 0.75293C2.1478 0.75293 2.40346 0.868485 2.63457 1.0996L14.0009 12.4659L25.3672 1.0996C25.5695 0.897374 25.8186 0.78904 26.1147 0.774596C26.408 0.760151 26.6701 0.868485 26.9012 1.0996C27.1324 1.33071 27.2479 1.58637 27.2479 1.8666C27.2479 2.14682 27.1324 2.40249 26.9012 2.6336L15.5349 13.9999L26.9012 25.3663C27.1035 25.5685 27.2118 25.8177 27.2262 26.1138C27.2407 26.407 27.1324 26.6692 26.9012 26.9003C26.6701 27.1314 26.4145 27.2469 26.1342 27.2469C25.854 27.2469 25.5984 27.1314 25.3672 26.9003L14.0009 15.5339Z" fill="#45B9F3"/>
</svg>
