<svg width="32" height="43" viewBox="0 0 32 43" fill="none" xmlns="http://www.w3.org/2000/svg">
<path fill-rule="evenodd" clip-rule="evenodd" d="M16.0013 0.833313V13.2916C16.0013 14.0541 16.3042 14.7854 16.8434 15.3246C17.3825 15.8637 18.1138 16.1666 18.8763 16.1666H31.3346V35.3333C31.3346 36.35 30.9308 37.325 30.2119 38.0439C29.493 38.7628 28.518 39.1666 27.5013 39.1666H4.5013C3.48464 39.1666 2.50962 38.7628 1.79073 38.0439C1.07184 37.325 0.667969 36.35 0.667969 35.3333V4.66665C0.667969 3.64998 1.07184 2.67496 1.79073 1.95607C2.50962 1.23718 3.48464 0.833313 4.5013 0.833313H16.0013ZM14.1057 19.7086C13.6469 22.6278 12.1203 25.2726 9.82197 27.13C8.12189 28.5023 9.6763 31.1952 11.7156 30.4113C14.4734 29.3492 17.5273 29.3492 20.2851 30.4113C22.3244 31.1971 23.8788 28.5042 22.1787 27.13C19.8804 25.2726 18.3538 22.6278 17.895 19.7086C17.5557 17.5505 14.445 17.5486 14.1057 19.7086ZM16.0013 24.4141L17.5461 27.0859H14.4603L16.0013 24.4141ZM19.8346 0.91573C20.5608 1.06974 21.2267 1.4313 21.7513 1.95648L30.2115 10.4166C30.7367 10.9413 31.0982 11.6071 31.2522 12.3333H19.8346V0.91573Z" fill="#0088CC"/>
</svg>
