<svg width="103" height="69" viewBox="0 0 103 69" fill="none" xmlns="http://www.w3.org/2000/svg">
<path d="M0 34.5C0 15.4462 15.4462 0 34.5 0H103V69H34.5C15.4462 69 0 53.5538 0 34.5Z" fill="#0C7FD3" fill-opacity="0.8"/>
<g clip-path="url(#clip0_60_6337)">
<path d="M27.4492 27.1727C27.4492 26.3848 27.4492 25.7545 27.4492 25.1242C27.4492 24.0212 27.9219 23.0758 28.7098 22.4455C29.3401 21.8152 30.128 21.5 30.9158 21.5C33.1219 21.5 35.328 21.5 37.3765 21.5C39.4249 21.5 40.8431 23.0758 40.8431 25.1242C40.8431 27.1727 40.8431 29.0636 40.8431 31.1121C40.8431 35.3667 40.8431 39.6212 40.8431 43.8758C40.8431 45.6091 39.7401 47.0273 38.1643 47.3424C37.8492 47.3424 37.534 47.3424 37.0613 47.3424C35.0128 47.3424 32.9643 47.3424 30.7583 47.3424C29.4977 47.3424 28.5522 46.8697 27.7643 45.9242C27.7643 45.9242 27.7643 45.9242 27.4492 45.9242C26.6613 46.8697 25.7158 47.3424 24.4552 47.3424C22.4068 47.3424 20.2007 47.3424 18.1522 47.3424C16.4189 47.3424 15.0007 46.2394 14.6855 44.5061C14.6855 44.1909 14.6855 44.0333 14.6855 43.7182C15.0007 39.1485 15.0007 34.5788 15.0007 29.8515C15.0007 27.9606 16.2613 26.5424 17.9946 26.2273C18.3098 26.2273 18.4674 26.2273 18.7825 26.2273C20.6734 26.2273 22.7219 26.2273 24.6128 26.2273C25.7158 26.2273 26.6613 26.2273 27.4492 27.1727ZM39.8977 34.5788C39.8977 31.4273 39.8977 28.4333 39.8977 25.2818C39.8977 25.1242 39.8977 24.8091 39.8977 24.6515C39.7401 23.5485 38.7946 22.7606 37.534 22.7606C35.4855 22.7606 33.2795 22.7606 31.231 22.7606C31.0734 22.7606 30.9158 22.7606 30.7583 22.7606C29.6552 22.9182 28.8674 23.8636 28.8674 25.1242C28.8674 31.4273 28.8674 37.7303 28.8674 43.8758C28.8674 44.0333 28.8674 44.1909 28.8674 44.3485C29.1825 45.4515 29.9704 46.2394 31.231 46.2394C33.2795 46.2394 35.4855 46.2394 37.534 46.2394C37.6916 46.2394 37.8492 46.2394 38.0068 46.2394C39.1098 46.0818 39.8977 45.1364 39.8977 43.8758C39.8977 40.7242 39.8977 37.7303 39.8977 34.5788ZM16.2613 36.7848C16.2613 39.1485 16.2613 41.3545 16.2613 43.7182C16.2613 45.1364 17.2068 46.2394 18.7825 46.2394C20.831 46.2394 22.8795 46.2394 25.0855 46.2394C26.5037 46.2394 27.6068 45.2939 27.6068 43.7182C27.6068 39.1485 27.6068 34.4212 27.6068 29.8515C27.6068 28.2758 26.6613 27.3303 25.0855 27.3303C23.0371 27.3303 20.9886 27.3303 18.9401 27.3303C17.5219 27.3303 16.4189 28.4333 16.4189 29.8515C16.4189 32.2152 16.4189 34.4212 16.4189 36.7848H16.2613Z" fill="white"/>
<path d="M34.2237 26.2273C34.854 26.2273 35.4843 26.2273 36.1146 26.2273C36.5873 26.2273 36.7449 26.3848 36.7449 26.8576C36.7449 27.1727 36.4298 27.4879 36.1146 27.4879C34.854 27.4879 33.4358 27.4879 32.1752 27.4879C31.7025 27.4879 31.5449 27.3303 31.5449 26.8576C31.5449 26.5424 31.8601 26.2273 32.1752 26.2273C32.8055 26.2273 33.4358 26.2273 34.2237 26.2273Z" fill="white"/>
<path d="M34.2243 32.0576C33.594 32.0576 32.9637 32.0576 32.3334 32.0576C31.8607 32.0576 31.7031 31.9 31.7031 31.4273C31.7031 31.1121 32.0183 30.797 32.3334 30.797C33.594 30.797 35.0122 30.797 36.2728 30.797C36.588 30.797 36.7455 30.797 36.9031 31.2697C36.9031 31.5848 36.9031 31.7424 36.7455 31.9C36.7455 31.9 36.4304 31.9 36.2728 31.9C35.6425 31.9 34.8546 31.9 34.2243 31.9V32.0576Z" fill="white"/>
<path d="M21.7764 35.6818C22.4067 35.6818 23.0371 35.6818 23.6674 35.6818C23.6674 35.6818 23.8249 35.6818 23.9825 35.6818C24.2977 35.6818 24.4552 35.997 24.4552 36.3121C24.4552 36.6273 24.2977 36.7849 23.9825 36.9424C23.9825 36.9424 23.8249 36.9424 23.6674 36.9424C22.4067 36.9424 21.1461 36.9424 19.8855 36.9424C19.8855 36.9424 19.8855 36.9424 19.728 36.9424C19.4128 36.9424 19.0977 36.6273 19.0977 36.3121C19.0977 35.997 19.4128 35.6818 19.728 35.6818C19.728 35.6818 19.728 35.6818 19.8855 35.6818C20.5158 35.6818 21.1461 35.6818 21.7764 35.6818Z" fill="white"/>
<path d="M21.7751 32.0576C21.1448 32.0576 20.5145 32.0576 19.8842 32.0576C19.4115 32.0576 19.2539 31.9 19.2539 31.4273C19.2539 31.1121 19.5691 30.797 19.8842 30.797C21.1448 30.797 22.563 30.797 23.8236 30.797C24.1388 30.797 24.4539 30.9545 24.4539 31.2697C24.4539 31.5848 24.4539 31.7424 24.1388 31.9C24.1388 31.9 23.8236 31.9 23.666 31.9C23.0357 31.9 22.4054 31.9 21.7751 31.9V32.0576Z" fill="white"/>
</g>
<path d="M74 25L64.7071 34.2929C64.3166 34.6834 64.3166 35.3166 64.7071 35.7071L74 45" stroke="white" stroke-width="4" stroke-linecap="round"/>
<defs>
<clipPath id="clip0_60_6337">
<rect width="26" height="26" fill="white" transform="translate(15 21.5)"/>
</clipPath>
</defs>
</svg>
