<svg width="25" height="26" viewBox="0 0 25 26" fill="none" xmlns="http://www.w3.org/2000/svg">
<path d="M4.13636 4.5C2.4077 4.5 1 5.87105 1 7.55469V17.737C1 19.4206 2.4077 20.7917 4.13636 20.7917H20.8636C22.5923 20.7917 24 19.4206 24 17.737V7.55469C24 5.87105 22.5923 4.5 20.8636 4.5H4.13636ZM4.13636 5.51823H20.8636C22.0309 5.51823 22.9545 6.41783 22.9545 7.55469V17.737C22.9545 18.8738 22.0309 19.7734 20.8636 19.7734H4.13636C3.8612 19.7755 3.58837 19.7242 3.33374 19.6226C3.07912 19.5209 2.84779 19.371 2.65321 19.1815C2.45864 18.992 2.3047 18.7667 2.20036 18.5187C2.09603 18.2707 2.04337 18.005 2.04545 17.737V7.55469C2.04545 6.41783 2.96911 5.51823 4.13636 5.51823Z" fill="white"/>
<path d="M4.54655 7.00021C4.47421 6.99818 4.40221 7.01078 4.33498 7.03723C4.26774 7.06369 4.20668 7.10343 4.15554 7.15404C4.05595 7.2525 4 7.38602 4 7.52524C4 7.66445 4.05595 7.79797 4.15554 7.89643L10.5306 14.1967C11.6139 15.2678 13.3861 15.2678 14.4694 14.1967L20.8445 7.89643C20.9441 7.79797 21 7.66445 21 7.52524C21 7.38602 20.9441 7.2525 20.8445 7.15404C20.7448 7.05562 20.6097 7.00032 20.4689 7.00032C20.328 7.00032 20.1929 7.05562 20.0933 7.15404L13.7182 13.4543C13.5587 13.6134 13.369 13.7396 13.1599 13.8257C12.9508 13.9119 12.7265 13.9562 12.5 13.9562C12.2735 13.9562 12.0492 13.9119 11.8401 13.8257C11.631 13.7396 11.4413 13.6134 11.2818 13.4543L4.90674 7.15404C4.81094 7.05922 4.68208 7.00418 4.54655 7.00021Z" fill="white"/>
</svg>
