<svg width="201" height="65" viewBox="0 0 201 65" fill="none" xmlns="http://www.w3.org/2000/svg">
<path d="M25.0693 12.2606H12.6528V36.2253H6.40234V6.79492H25.0693V12.2606Z" fill="white"/>
<path d="M44.242 12.2606H37.4425C37.3018 14.9233 37.1539 17.3268 36.9991 19.471C36.8442 21.6152 36.6331 23.5422 36.3656 25.2519C36.0981 26.9617 35.7391 28.4823 35.2887 29.8137C34.8382 31.145 34.2751 32.3152 33.5993 33.3243C33.1488 33.9689 32.6491 34.5015 32.1001 34.9219C31.551 35.3424 30.9809 35.6717 30.3896 35.9099C29.7984 36.1482 29.2212 36.3164 28.6581 36.4145C28.095 36.5126 27.5741 36.5616 27.0955 36.5616C26.3634 36.5616 25.7933 36.5056 25.385 36.3934C24.9768 36.2813 24.5333 36.1132 24.0547 35.8889L24.7304 30.6756C25.0401 30.7877 25.4061 30.8437 25.8285 30.8437C26.3071 30.8437 26.7858 30.7316 27.2644 30.5074C27.743 30.2831 28.1654 29.9188 28.5314 29.4143C28.9819 28.7976 29.3831 27.9147 29.735 26.7655C30.087 25.6163 30.3826 24.1238 30.6219 22.2879C30.8612 20.452 31.0583 18.2587 31.2132 15.7081C31.368 13.1575 31.4736 10.1864 31.5299 6.79492H50.4925V36.2253H44.242V12.2606Z" fill="white"/>
<path d="M71.863 29.9601H61.8961L59.4888 36.2246H53.2383L64.8101 6.58398H69.4135L81.0275 36.2246H74.397L71.863 29.9601ZM63.6276 25.041H70.3848L68.1043 18.9027L67.0907 14.2359H66.8795L65.8659 18.9447L63.6276 25.041Z" fill="white"/>
<path d="M105.397 13.7316C105.397 14.4604 105.291 15.1821 105.08 15.8969C104.869 16.6116 104.538 17.2773 104.087 17.8939C103.637 18.5105 103.046 19.0431 102.314 19.4916C101.582 19.94 100.695 20.2624 99.6531 20.4586V20.7108C100.582 20.7949 101.455 21.0051 102.272 21.3415C103.088 21.6778 103.799 22.1473 104.404 22.7499C105.01 23.3525 105.488 24.0813 105.84 24.9362C106.192 25.7911 106.368 26.7931 106.368 27.9423C106.368 29.4839 106.009 30.8012 105.291 31.8944C104.573 32.9875 103.637 33.8844 102.483 34.5851C101.328 35.2858 100.005 35.8044 98.5127 36.1407C97.0205 36.4771 95.5002 36.6452 93.9516 36.6452C93.4448 36.6452 92.7761 36.6452 91.9455 36.6452C91.115 36.6452 90.2281 36.6242 89.2849 36.5822C88.3417 36.5401 87.3844 36.4771 86.413 36.393C85.4416 36.3089 84.5618 36.1828 83.7734 36.0146V7.00467C84.3647 6.92059 85.0334 6.83651 85.7795 6.75242C86.5256 6.66833 87.3281 6.59827 88.1868 6.54221C89.0456 6.48615 89.9254 6.4441 90.8264 6.41607C91.7274 6.38804 92.6283 6.37402 93.5293 6.37402C94.9933 6.37402 96.4292 6.47915 97.837 6.68936C99.2448 6.89958 100.512 7.27796 101.638 7.82452C102.764 8.37109 103.672 9.12086 104.362 10.0738C105.052 11.0268 105.397 12.2461 105.397 13.7316ZM93.8672 31.6001C94.6555 31.6001 95.4086 31.53 96.1266 31.3898C96.8446 31.2497 97.478 31.0184 98.0271 30.6961C98.5761 30.3738 99.0125 29.9674 99.3363 29.4769C99.6601 28.9864 99.822 28.3767 99.822 27.648C99.822 26.751 99.6249 26.0363 99.2307 25.5037C98.8366 24.9712 98.3227 24.5718 97.6892 24.3055C97.0557 24.0393 96.3518 23.8711 95.5776 23.801C94.8033 23.7309 94.022 23.6959 93.2336 23.6959H89.7706V31.3478C89.9395 31.4039 90.1858 31.4459 90.5096 31.4739C90.8334 31.5019 91.1924 31.523 91.5865 31.537C91.9807 31.551 92.382 31.565 92.7902 31.579C93.1985 31.593 93.5574 31.6001 93.8672 31.6001ZM91.8822 19.0711C92.3045 19.0711 92.8043 19.0641 93.3815 19.0501C93.9587 19.0361 94.4443 19.0011 94.8385 18.945C96.021 18.5806 97.0205 18.0831 97.837 17.4525C98.6535 16.8218 99.0618 15.9599 99.0618 14.8668C99.0618 14.138 98.9069 13.5494 98.5972 13.101C98.2875 12.6525 97.8722 12.3021 97.3513 12.0499C96.8305 11.7976 96.2462 11.6295 95.5987 11.5454C94.9511 11.4613 94.2895 11.4192 93.6137 11.4192C92.7972 11.4192 92.0511 11.4333 91.3754 11.4613C90.6997 11.4893 90.1647 11.5313 89.7706 11.5874V19.0711H91.8822Z" fill="white"/>
<path d="M135.761 21.468L136.437 15.3718H136.184L134.156 19.9965L127.315 30.9699H125.372L118.108 19.9545L116.123 15.4138H115.87L116.756 21.426V36.2253H110.844V6.79492H116.503L125.034 20.3749L126.639 23.6123H126.85L128.244 20.2908L136.395 6.79492H142.012V36.2253H135.761V21.468Z" fill="white"/>
<path d="M147.502 6.79492H166.549V12.2606H153.752V18.6512H165.367V24.1168H153.752V30.7596H166.76V36.2253H147.502V6.79492Z" fill="white"/>
<path d="M178.966 21.2578L170.013 6.79492H177.573L182.514 15.1616L183.654 18.0625L184.752 15.1616L189.905 6.79492H196.704L187.413 20.9635L197.169 36.2253H189.694L184.034 27.27L182.767 24.2429L181.543 27.27L175.884 36.2253H169.084L178.966 21.2578Z" fill="white"/>
<path d="M13.5218 49.5954C13.5218 49.8353 13.4848 50.0706 13.4152 50.306C13.3457 50.5413 13.2391 50.7628 13.0908 50.9658C12.9425 51.1688 12.7478 51.3441 12.5068 51.4918C12.2657 51.6395 11.9737 51.7456 11.6307 51.8102V51.8932C11.9366 51.9209 12.224 51.9902 12.4928 52.1009C12.7617 52.2116 12.9934 52.3639 13.1927 52.5623C13.392 52.7607 13.5497 53.0007 13.6655 53.2821C13.7814 53.5636 13.8417 53.8959 13.8417 54.2742C13.8417 54.7818 13.7212 55.2155 13.4848 55.5754C13.2484 55.9354 12.9425 56.2307 12.5624 56.4614C12.1823 56.6921 11.7466 56.8628 11.2553 56.9736C10.764 57.0843 10.2634 57.1397 9.75351 57.1397C9.58665 57.1397 9.36418 57.1397 9.09071 57.1397C8.81724 57.1397 8.52521 57.1305 8.21466 57.1166C7.90411 57.1028 7.58891 57.0843 7.26909 57.0566C6.94927 57.0289 6.66191 56.9874 6.40234 56.932V47.3805C6.59702 47.3528 6.81486 47.3251 7.06052 47.2974C7.30618 47.2698 7.57037 47.2467 7.85311 47.2282C8.13585 47.2098 8.42788 47.1959 8.72452 47.1867C9.02117 47.1775 9.31782 47.1729 9.61447 47.1729C10.0965 47.1729 10.5693 47.2051 11.0328 47.2743C11.4963 47.3436 11.9135 47.4682 12.2843 47.6481C12.6551 47.8281 12.9517 48.0772 13.1788 48.391C13.406 48.7048 13.5218 49.1062 13.5218 49.5954ZM9.72568 55.4785C9.98525 55.4785 10.2309 55.4555 10.4673 55.4093C10.7037 55.3632 10.9123 55.2848 11.0931 55.1786C11.2738 55.0725 11.4175 54.9387 11.5241 54.7772C11.6307 54.6157 11.6863 54.4173 11.6863 54.1773C11.6863 53.882 11.6215 53.6467 11.4917 53.4713C11.3619 53.296 11.1904 53.1622 10.9818 53.0745C10.7732 52.9868 10.5415 52.9315 10.2865 52.9084C10.0316 52.8853 9.77668 52.8761 9.51711 52.8761H8.37691V55.3955C8.43253 55.4139 8.5113 55.4278 8.6179 55.437C8.72451 55.4463 8.84504 55.4509 8.97482 55.4555C9.1046 55.4601 9.23438 55.4647 9.3688 55.4693C9.50322 55.4739 9.62371 55.4785 9.72568 55.4785ZM9.07214 51.3534C9.21119 51.3534 9.37344 51.3488 9.56347 51.3442C9.75351 51.3395 9.91572 51.3303 10.0455 51.3118C10.4349 51.1919 10.764 51.0258 11.0328 50.8181C11.3016 50.6105 11.436 50.329 11.436 49.9691C11.436 49.7291 11.3851 49.5353 11.2831 49.3877C11.1811 49.24 11.0421 49.1247 10.8706 49.0416C10.6991 48.9586 10.509 48.9032 10.2958 48.8755C10.0826 48.8478 9.86475 48.834 9.64226 48.834C9.37343 48.834 9.12778 48.8386 8.9053 48.8478C8.68281 48.8571 8.50669 48.8709 8.37691 48.8894V51.3534H9.07214Z" fill="#D2EFFE"/>
<path d="M20.1279 54.1908H17.3608V57.0009H15.4141V49.7334H17.3608V52.4327H20.1279V49.7334H22.0747V57.0009H20.1279V54.1908Z" fill="#D2EFFE"/>
<path d="M28.9152 53.7201L28.9987 52.4881L28.1226 53.7063L25.2442 57.0009H24.0762V49.7334H26.0229V53.1526L25.9534 54.1493H26.1203C26.2315 53.9924 26.3427 53.8263 26.4586 53.6509C26.5745 53.4756 26.6904 53.3095 26.8016 53.1526L29.6939 49.7334H30.862V57.0009H28.9152V53.7201Z" fill="#D2EFFE"/>
<path d="M39.7464 53.7755L39.8854 52.1974H39.663L39.0094 53.4433V53.4294L37.5354 55.6858H36.8541L35.2272 53.4294V53.4433L34.5736 52.1974H34.3789L34.5875 53.7617V57.0009H32.8633V49.7334H34.9074L36.7289 52.4466V52.4327L37.2156 53.3602H37.3686L37.8553 52.405V52.4189L39.5517 49.7334H41.5958V57.0009H39.7464V53.7755Z" fill="#D2EFFE"/>
<path d="M43.5301 50.2325C43.9473 50.0479 44.4571 49.8956 45.0643 49.7756C45.6715 49.6557 46.3019 49.5957 46.9508 49.5957C47.4607 49.5957 47.8871 49.6557 48.2347 49.7756C48.5824 49.8956 48.8605 50.0663 49.0644 50.2924C49.2684 50.5185 49.412 50.7908 49.5001 51.1092C49.5882 51.4275 49.6345 51.7829 49.6345 52.1705C49.6345 52.6411 49.616 53.1072 49.5789 53.5686C49.5418 54.03 49.5233 54.5191 49.5233 55.0359C49.5233 55.3866 49.5465 55.728 49.5928 56.0603C49.6392 56.3925 49.7133 56.7109 49.8153 57.0154H48.2301L47.9103 55.9357H47.7434C47.5024 56.2587 47.1965 56.5355 46.8257 56.7663C46.4549 56.997 45.9775 57.1124 45.3934 57.1124C45.0412 57.1124 44.7167 57.0616 44.4247 56.9601C44.1327 56.8585 43.8824 56.7109 43.6738 56.5217C43.4652 56.3325 43.303 56.111 43.1871 55.8526C43.0712 55.5942 43.0156 55.3128 43.0156 55.0082C43.0156 54.1869 43.2891 53.564 43.8406 53.1441C44.3922 52.7242 45.2312 52.5165 46.3529 52.5165C46.6124 52.5165 46.872 52.535 47.1316 52.5765C47.3912 52.618 47.5719 52.6504 47.6739 52.6688C47.7017 52.475 47.7156 52.3089 47.7156 52.1705C47.7156 51.8198 47.6275 51.5614 47.4514 51.3953C47.2752 51.2292 46.9462 51.1461 46.4641 51.1461C46.0191 51.1461 45.5835 51.1968 45.1617 51.303C44.7399 51.4091 44.3691 51.5429 44.0446 51.6998L43.5301 50.2325ZM46.0748 55.562C46.5105 55.562 46.8581 55.4604 47.1177 55.2574C47.3772 55.0544 47.5673 54.8421 47.6878 54.6206V53.7901C47.6414 53.7716 47.5673 53.7531 47.4699 53.7347C47.3726 53.7162 47.266 53.6978 47.1501 53.6793C47.0342 53.6609 46.9183 53.647 46.8025 53.6378C46.6866 53.6286 46.5846 53.6239 46.4919 53.6239C45.9914 53.6239 45.6205 53.7116 45.3795 53.8916C45.1385 54.0716 45.018 54.2976 45.018 54.5653C45.018 54.8975 45.1107 55.1467 45.3007 55.3128C45.4907 55.4789 45.7503 55.562 46.0748 55.562Z" fill="#D2EFFE"/>
<path d="M56.3643 54.1908H53.5971V57.0009H51.6504V49.7334H53.5971V52.4327H56.3643V49.7334H58.311V57.0009H56.3643V54.1908Z" fill="#D2EFFE"/>
<path d="M65.1515 53.7201L65.235 52.4881L64.359 53.7063L61.4805 57.0009H60.3125V49.7334H62.2593V53.1526L62.1897 54.1493H62.3566C62.4678 53.9924 62.5791 53.8263 62.6949 53.6509C62.8108 53.4756 62.9267 53.3095 63.038 53.1526L65.9302 49.7334H67.0983V57.0009H65.1515V53.7201Z" fill="#D2EFFE"/>
<path d="M75.3442 56.3371C75.029 56.577 74.598 56.78 74.0557 56.9507C73.5133 57.1215 72.9339 57.2091 72.3128 57.2091C71.0613 57.2091 70.1436 56.8677 69.5596 56.1848C68.9756 55.5019 68.6836 54.5652 68.6836 53.3747C68.6836 52.1104 69.0127 51.1506 69.6709 50.5C70.329 49.8494 71.256 49.5264 72.4519 49.5264C72.8412 49.5264 73.226 49.5725 73.606 49.6694C73.9861 49.7663 74.3245 49.9278 74.6211 50.1539C74.9178 50.38 75.1542 50.6846 75.3349 51.0676C75.5157 51.4506 75.6084 51.9258 75.6084 52.4888C75.6084 52.6826 75.5945 52.8948 75.5713 53.1255C75.5481 53.3562 75.5111 53.5962 75.4555 53.8454H70.5886C70.6349 54.4729 70.8157 54.9343 71.1355 55.2343C71.4553 55.5342 71.9791 55.6865 72.7022 55.6865C73.1379 55.6865 73.5272 55.6219 73.8749 55.4973C74.2225 55.3727 74.4914 55.2481 74.6768 55.1189L75.3442 56.3371ZM72.4241 51.0491C71.8493 51.0491 71.4229 51.2014 71.1448 51.5105C70.8667 51.8197 70.7045 52.2165 70.6581 52.6964H73.8007C73.8378 52.1888 73.7451 51.7874 73.5226 51.4921C73.3001 51.1967 72.9339 51.0491 72.4241 51.0491Z" fill="#D2EFFE"/>
<path d="M83.8273 53.9831H83.1459V57.0009H81.1992V49.7334H83.1459V52.8757L83.7717 52.6127L85.635 49.7334H87.7347C87.4103 50.1764 87.0904 50.6193 86.7798 51.0669C86.4693 51.5145 86.1588 51.9621 85.8436 52.405L84.9258 53.0141L85.8992 53.6094C86.2514 54.1815 86.6084 54.7445 86.9699 55.3028C87.3314 55.8612 87.6883 56.4287 88.0406 57.0009H85.7879L83.8273 53.9831Z" fill="#D2EFFE"/>
<path d="M99.762 53.7755L99.9011 52.1974H99.6786L99.025 53.4433V53.4294L97.5511 55.6858H96.8697L95.2428 53.4294V53.4433L94.5892 52.1974H94.3946L94.6031 53.7617V57.0009H92.8789V49.7334H94.923L96.7446 52.4466V52.4327L97.2312 53.3602H97.3842L97.8709 52.405V52.4189L99.5673 49.7334H101.611V57.0009H99.762V53.7755Z" fill="#D2EFFE"/>
<path d="M109.858 56.3371C109.543 56.577 109.112 56.78 108.569 56.9507C108.027 57.1215 107.448 57.2091 106.826 57.2091C105.575 57.2091 104.657 56.8677 104.073 56.1848C103.489 55.5019 103.197 54.5652 103.197 53.3747C103.197 52.1104 103.526 51.1506 104.185 50.5C104.843 49.8494 105.77 49.5264 106.966 49.5264C107.355 49.5264 107.74 49.5725 108.12 49.6694C108.5 49.7663 108.838 49.9278 109.135 50.1539C109.431 50.38 109.668 50.6846 109.849 51.0676C110.029 51.4506 110.122 51.9258 110.122 52.4888C110.122 52.6826 110.108 52.8948 110.085 53.1255C110.062 53.3562 110.025 53.5962 109.969 53.8454H105.102C105.149 54.4729 105.329 54.9343 105.649 55.2343C105.969 55.5342 106.493 55.6865 107.216 55.6865C107.652 55.6865 108.041 55.6219 108.389 55.4973C108.736 55.3727 109.005 55.2481 109.19 55.1189L109.858 56.3371ZM106.938 51.0491C106.363 51.0491 105.937 51.2014 105.658 51.5105C105.38 51.8197 105.218 52.2165 105.172 52.6964H108.314C108.351 52.1888 108.259 51.7874 108.036 51.4921C107.814 51.1967 107.448 51.0491 106.938 51.0491Z" fill="#D2EFFE"/>
<path d="M116.253 51.4499H114.543C114.515 52.2251 114.455 52.9542 114.367 53.6371C114.279 54.32 114.14 54.9152 113.945 55.4274C113.75 55.9396 113.491 56.3457 113.171 56.641C112.851 56.9363 112.443 57.0839 111.943 57.0839C111.359 57.0839 110.946 57.0193 110.705 56.8901L110.983 55.1736C111.141 55.2198 111.284 55.2428 111.414 55.2428C111.637 55.2428 111.831 55.1644 111.998 55.0075C112.165 54.8506 112.304 54.5645 112.415 54.1539C112.527 53.7432 112.615 53.1849 112.684 52.4743C112.754 51.7637 112.809 50.8501 112.847 49.7334H118.2V57.0009H116.253V51.4499Z" fill="#D2EFFE"/>
<path d="M119.785 53.3747C119.785 52.175 120.105 51.2337 120.745 50.5507C121.384 49.8678 122.297 49.5264 123.484 49.5264C124.105 49.5264 124.647 49.6233 125.111 49.8171C125.574 50.0109 125.959 50.2785 126.265 50.6246C126.571 50.9707 126.798 51.3767 126.951 51.8428C127.104 52.3088 127.183 52.821 127.183 53.3747C127.183 53.9653 127.099 54.4959 126.933 54.9712C126.766 55.4465 126.525 55.8525 126.209 56.1848C125.894 56.517 125.505 56.7708 125.046 56.9461C124.587 57.1215 124.068 57.2091 123.484 57.2091C122.854 57.2091 122.307 57.1123 121.843 56.9185C121.38 56.7247 120.995 56.4524 120.689 56.1063C120.383 55.7603 120.156 55.3542 120.008 54.8882C119.859 54.4221 119.785 53.9192 119.785 53.3747ZM121.788 53.3747C121.788 53.6793 121.82 53.9653 121.885 54.233C121.95 54.5006 122.047 54.7313 122.181 54.9297C122.316 55.1281 122.492 55.2896 122.705 55.4096C122.919 55.5295 123.178 55.5895 123.484 55.5895C124.615 55.5895 125.18 54.8513 125.18 53.3747C125.18 53.0517 125.148 52.7518 125.088 52.4795C125.027 52.2073 124.93 51.972 124.796 51.7736C124.661 51.5751 124.485 51.4228 124.267 51.3121C124.049 51.2014 123.79 51.146 123.484 51.146C122.956 51.146 122.538 51.3213 122.237 51.672C121.936 52.0227 121.788 52.5903 121.788 53.3747Z" fill="#D2EFFE"/>
<path d="M130.298 49.7334V51.1592C130.298 51.5099 130.312 51.8052 130.345 52.0498C130.377 52.2943 130.437 52.4973 130.521 52.6542C130.604 52.8111 130.725 52.9219 130.882 52.9911C131.04 53.0603 131.244 53.0972 131.494 53.0972C131.8 53.0972 132.074 53.0557 132.315 52.9772C132.556 52.8988 132.755 52.8065 132.912 52.6958V49.7334H134.859V57.0009H132.912V54.0385C132.81 54.1031 132.695 54.1723 132.565 54.2508C132.435 54.3292 132.282 54.403 132.106 54.4723C131.93 54.5415 131.731 54.6014 131.508 54.6476C131.286 54.6937 131.04 54.7168 130.771 54.7168C130.391 54.7168 130.048 54.6753 129.747 54.5969C129.445 54.5184 129.19 54.38 128.982 54.1815C128.773 53.9831 128.616 53.7201 128.509 53.3925C128.403 53.0649 128.352 52.6542 128.352 52.1559V49.7334H130.298Z" fill="#D2EFFE"/>
<path d="M136.792 50.2325C137.209 50.0479 137.719 49.8956 138.326 49.7756C138.933 49.6557 139.564 49.5957 140.213 49.5957C140.722 49.5957 141.149 49.6557 141.496 49.7756C141.844 49.8956 142.122 50.0663 142.326 50.2924C142.53 50.5185 142.674 50.7908 142.762 51.1092C142.85 51.4275 142.896 51.7829 142.896 52.1705C142.896 52.6411 142.878 53.1072 142.841 53.5686C142.804 54.03 142.785 54.5191 142.785 55.0359C142.785 55.3866 142.808 55.728 142.855 56.0603C142.901 56.3925 142.975 56.7109 143.077 57.0154H141.492L141.172 55.9357H141.005C140.764 56.2587 140.458 56.5355 140.087 56.7663C139.717 56.997 139.239 57.1124 138.655 57.1124C138.303 57.1124 137.978 57.0616 137.686 56.9601C137.394 56.8585 137.144 56.7109 136.936 56.5217C136.727 56.3325 136.565 56.111 136.449 55.8526C136.333 55.5942 136.277 55.3128 136.277 55.0082C136.277 54.1869 136.551 53.564 137.102 53.1441C137.654 52.7242 138.493 52.5165 139.615 52.5165C139.874 52.5165 140.134 52.535 140.393 52.5765C140.653 52.618 140.834 52.6504 140.936 52.6688C140.963 52.475 140.977 52.3089 140.977 52.1705C140.977 51.8198 140.889 51.5614 140.713 51.3953C140.537 51.2292 140.208 51.1461 139.726 51.1461C139.281 51.1461 138.845 51.1968 138.423 51.303C138.002 51.4091 137.631 51.5429 137.306 51.6998L136.792 50.2325ZM139.337 55.562C139.772 55.562 140.12 55.4604 140.379 55.2574C140.639 55.0544 140.829 54.8421 140.949 54.6206V53.7901C140.903 53.7716 140.829 53.7531 140.732 53.7347C140.634 53.7162 140.528 53.6978 140.412 53.6793C140.296 53.6609 140.18 53.647 140.064 53.6378C139.948 53.6286 139.846 53.6239 139.754 53.6239C139.253 53.6239 138.882 53.7116 138.641 53.8916C138.4 54.0716 138.28 54.2976 138.28 54.5653C138.28 54.8975 138.372 55.1467 138.562 55.3128C138.752 55.4789 139.012 55.562 139.337 55.562Z" fill="#D2EFFE"/>
<path d="M151.795 53.7755L151.934 52.1974H151.712L151.058 53.4433V53.4294L149.584 55.6858H148.903L147.276 53.4294V53.4433L146.622 52.1974H146.428L146.636 53.7617V57.0009H144.912V49.7334H146.956L148.778 52.4466V52.4327L149.264 53.3602H149.417L149.904 52.405V52.4189L151.601 49.7334H153.645V57.0009H151.795V53.7755Z" fill="#D2EFFE"/>
</svg>
