<svg width="18" height="22" viewBox="0 0 18 22" fill="none" xmlns="http://www.w3.org/2000/svg">
<path fill-rule="evenodd" clip-rule="evenodd" d="M17.5492 9.16669C17.5492 15.5834 8.99922 21.0834 8.99922 21.0834C8.99922 21.0834 0.449219 15.5834 0.449219 9.16669C0.449219 6.97865 1.35002 4.88023 2.95346 3.33306C4.55689 1.78588 6.73162 0.916687 8.99922 0.916687C11.2668 0.916687 13.4415 1.78588 15.045 3.33306C16.6484 4.88023 17.5492 6.97865 17.5492 9.16669Z" stroke="#0088CC" stroke-width="0.8" stroke-linecap="round" stroke-linejoin="round"/>
<path d="M8.99844 11.9167C10.5724 11.9167 11.8484 10.6855 11.8484 9.16669C11.8484 7.6479 10.5724 6.41669 8.99844 6.41669C7.42443 6.41669 6.14844 7.6479 6.14844 9.16669C6.14844 10.6855 7.42443 11.9167 8.99844 11.9167Z" stroke="#0088CC" stroke-width="0.8" stroke-linecap="round" stroke-linejoin="round"/>
</svg>
