<svg width="201" height="65" viewBox="0 0 201 65" fill="none" xmlns="http://www.w3.org/2000/svg">
<path d="M25.0693 12.26H12.6528V36.2248H6.40234V6.7944H25.0693V12.26Z" fill="white"/>
<path d="M44.244 12.26H37.4445C37.3037 14.9228 37.1559 17.3263 37.001 19.4705C36.8462 21.6147 36.635 23.5417 36.3675 25.2514C36.1001 26.9612 35.7411 28.4818 35.2906 29.8131C34.8401 31.1445 34.277 32.3147 33.6013 33.3238C33.1508 33.9684 32.6511 34.501 32.102 34.9214C31.553 35.3418 30.9829 35.6712 30.3916 35.9094C29.8003 36.1477 29.2231 36.3159 28.66 36.414C28.0969 36.5121 27.576 36.5611 27.0974 36.5611C26.3654 36.5611 25.7952 36.505 25.387 36.3929C24.9787 36.2808 24.5353 36.1126 24.0566 35.8884L24.7324 30.675C25.0421 30.7872 25.4081 30.8432 25.8304 30.8432C26.3091 30.8432 26.7877 30.7311 27.2664 30.5069C27.745 30.2826 28.1673 29.9183 28.5333 29.4137C28.9838 28.7971 29.385 27.9142 29.737 26.765C30.0889 25.6158 30.3845 24.1233 30.6239 22.2874C30.8632 20.4515 31.0603 18.2582 31.2151 15.7076C31.37 13.157 31.4756 10.1859 31.5319 6.7944H50.4945V36.2248H44.244V12.26Z" fill="white"/>
<path d="M71.863 29.9603H61.8961L59.4888 36.2248H53.2383L64.8101 6.58423H69.4135L81.0275 36.2248H74.397L71.863 29.9603ZM63.6276 25.0413H70.3848L68.1043 18.9029L67.0907 14.2361H66.8795L65.8659 18.945L63.6276 25.0413Z" fill="white"/>
<path d="M105.397 13.7316C105.397 14.4603 105.291 15.1821 105.08 15.8968C104.869 16.6116 104.538 17.2772 104.087 17.8939C103.637 18.5105 103.046 19.0431 102.314 19.4915C101.582 19.94 100.695 20.2623 99.6531 20.4585V20.7108C100.582 20.7949 101.455 21.0051 102.272 21.3414C103.088 21.6778 103.799 22.1473 104.404 22.7499C105.01 23.3525 105.488 24.0813 105.84 24.9362C106.192 25.791 106.368 26.7931 106.368 27.9423C106.368 29.4838 106.009 30.8012 105.291 31.8943C104.573 32.9875 103.637 33.8844 102.483 34.5851C101.328 35.2858 100.005 35.8044 98.5127 36.1407C97.0205 36.477 95.5002 36.6452 93.9516 36.6452C93.4448 36.6452 92.7761 36.6452 91.9455 36.6452C91.115 36.6452 90.2281 36.6242 89.2849 36.5822C88.3417 36.5401 87.3844 36.477 86.413 36.393C85.4416 36.3089 84.5618 36.1827 83.7734 36.0146V7.00464C84.3647 6.92056 85.0334 6.83648 85.7795 6.75239C86.5256 6.6683 87.3281 6.59824 88.1868 6.54218C89.0456 6.48612 89.9254 6.44407 90.8264 6.41604C91.7274 6.38801 92.6283 6.37399 93.5293 6.37399C94.9933 6.37399 96.4292 6.47912 97.837 6.68933C99.2448 6.89955 100.512 7.27793 101.638 7.82449C102.764 8.37106 103.672 9.12083 104.362 10.0738C105.052 11.0268 105.397 12.246 105.397 13.7316ZM93.8672 31.6C94.6555 31.6 95.4086 31.5299 96.1266 31.3898C96.8446 31.2496 97.478 31.0184 98.0271 30.6961C98.5761 30.3738 99.0125 29.9673 99.3363 29.4768C99.6601 28.9863 99.822 28.3767 99.822 27.6479C99.822 26.751 99.6249 26.0363 99.2307 25.5037C98.8366 24.9712 98.3227 24.5718 97.6892 24.3055C97.0557 24.0392 96.3518 23.871 95.5776 23.801C94.8033 23.7309 94.022 23.6959 93.2336 23.6959H89.7706V31.3478C89.9395 31.4038 90.1858 31.4459 90.5096 31.4739C90.8334 31.5019 91.1924 31.5229 91.5865 31.5369C91.9807 31.551 92.382 31.565 92.7902 31.579C93.1985 31.593 93.5574 31.6 93.8672 31.6ZM91.8822 19.0711C92.3045 19.0711 92.8043 19.0641 93.3815 19.0501C93.9587 19.0361 94.4443 19.001 94.8385 18.945C96.021 18.5806 97.0205 18.0831 97.837 17.4524C98.6535 16.8218 99.0618 15.9599 99.0618 14.8668C99.0618 14.138 98.9069 13.5494 98.5972 13.101C98.2875 12.6525 97.8722 12.3021 97.3513 12.0499C96.8305 11.7976 96.2462 11.6294 95.5987 11.5453C94.9511 11.4613 94.2895 11.4192 93.6137 11.4192C92.7972 11.4192 92.0511 11.4332 91.3754 11.4613C90.6997 11.4893 90.1647 11.5313 89.7706 11.5874V19.0711H91.8822Z" fill="white"/>
<path d="M135.761 21.4675L136.437 15.3712H136.184L134.156 19.996L127.315 30.9693H125.372L118.108 19.954L116.123 15.4133H115.87L116.756 21.4255V36.2248H110.844V6.7944H116.503L125.034 20.3744L126.639 23.6118H126.85L128.244 20.2903L136.395 6.7944H142.012V36.2248H135.761V21.4675Z" fill="white"/>
<path d="M147.502 6.7944H166.549V12.26H153.752V18.6506H165.367V24.1163H153.752V30.7591H166.76V36.2248H147.502V6.7944Z" fill="white"/>
<path d="M178.966 21.2573L170.013 6.7944H177.573L182.514 15.161L183.654 18.062L184.752 15.161L189.905 6.7944H196.704L187.413 20.963L197.169 36.2248H189.694L184.034 27.2695L182.767 24.2424L181.543 27.2695L175.884 36.2248H169.084L178.966 21.2573Z" fill="white"/>
<path d="M13.5218 49.5954C13.5218 49.8353 13.4848 50.0706 13.4152 50.306C13.3457 50.5413 13.2391 50.7628 13.0908 50.9658C12.9425 51.1688 12.7478 51.3441 12.5068 51.4918C12.2657 51.6395 11.9737 51.7456 11.6307 51.8102V51.8932C11.9366 51.9209 12.224 51.9902 12.4928 52.1009C12.7617 52.2116 12.9934 52.3639 13.1927 52.5623C13.392 52.7607 13.5497 53.0007 13.6655 53.2821C13.7814 53.5636 13.8417 53.8959 13.8417 54.2742C13.8417 54.7818 13.7212 55.2155 13.4848 55.5754C13.2484 55.9354 12.9425 56.2307 12.5624 56.4614C12.1823 56.6921 11.7466 56.8628 11.2553 56.9736C10.764 57.0843 10.2634 57.1397 9.75351 57.1397C9.58665 57.1397 9.36418 57.1397 9.09071 57.1397C8.81724 57.1397 8.52521 57.1305 8.21466 57.1166C7.90411 57.1028 7.58891 57.0843 7.26909 57.0566C6.94927 57.0289 6.66191 56.9874 6.40234 56.932V47.3805C6.59702 47.3528 6.81486 47.3251 7.06052 47.2974C7.30618 47.2698 7.57037 47.2467 7.85311 47.2282C8.13585 47.2098 8.42788 47.1959 8.72452 47.1867C9.02117 47.1775 9.31782 47.1729 9.61447 47.1729C10.0965 47.1729 10.5693 47.2051 11.0328 47.2743C11.4963 47.3436 11.9135 47.4682 12.2843 47.6481C12.6551 47.8281 12.9517 48.0772 13.1788 48.391C13.406 48.7048 13.5218 49.1062 13.5218 49.5954ZM9.72568 55.4785C9.98525 55.4785 10.2309 55.4555 10.4673 55.4093C10.7037 55.3632 10.9123 55.2848 11.0931 55.1786C11.2738 55.0725 11.4175 54.9387 11.5241 54.7772C11.6307 54.6157 11.6863 54.4173 11.6863 54.1773C11.6863 53.882 11.6215 53.6467 11.4917 53.4713C11.3619 53.296 11.1904 53.1622 10.9818 53.0745C10.7732 52.9868 10.5415 52.9315 10.2865 52.9084C10.0316 52.8853 9.77668 52.8761 9.51711 52.8761H8.37691V55.3955C8.43253 55.4139 8.5113 55.4278 8.6179 55.437C8.72451 55.4463 8.84504 55.4509 8.97482 55.4555C9.1046 55.4601 9.23438 55.4647 9.3688 55.4693C9.50322 55.4739 9.62371 55.4785 9.72568 55.4785ZM9.07214 51.3534C9.21119 51.3534 9.37344 51.3488 9.56347 51.3442C9.75351 51.3395 9.91572 51.3303 10.0455 51.3118C10.4349 51.1919 10.764 51.0258 11.0328 50.8181C11.3016 50.6105 11.436 50.329 11.436 49.9691C11.436 49.7291 11.3851 49.5353 11.2831 49.3877C11.1811 49.24 11.0421 49.1247 10.8706 49.0416C10.6991 48.9586 10.509 48.9032 10.2958 48.8755C10.0826 48.8478 9.86475 48.834 9.64226 48.834C9.37343 48.834 9.12778 48.8386 8.9053 48.8478C8.68281 48.8571 8.50669 48.8709 8.37691 48.8894V51.3534H9.07214Z" fill="#D2EFFE"/>
<path d="M20.126 54.1912H17.3588V57.0013H15.4121V49.7338H17.3588V52.4331H20.126V49.7338H22.0727V57.0013H20.126V54.1912Z" fill="#D2EFFE"/>
<path d="M28.9152 53.7205L28.9987 52.4885L28.1226 53.7067L25.2442 57.0013H24.0762V49.7338H26.0229V53.1529L25.9534 54.1496H26.1203C26.2315 53.9928 26.3427 53.8266 26.4586 53.6513C26.5745 53.476 26.6904 53.3098 26.8016 53.1529L29.6939 49.7338H30.862V57.0013H28.9152V53.7205Z" fill="#D2EFFE"/>
<path d="M39.7464 53.7759L39.8854 52.1978H39.663L39.0094 53.4437V53.4298L37.5354 55.6862H36.8541L35.2272 53.4298V53.4437L34.5736 52.1978H34.3789L34.5875 53.762V57.0013H32.8633V49.7338H34.9074L36.7289 52.447V52.4331L37.2156 53.3606H37.3686L37.8553 52.4054V52.4193L39.5517 49.7338H41.5958V57.0013H39.7464V53.7759Z" fill="#D2EFFE"/>
<path d="M43.5301 50.2322C43.9473 50.0476 44.4571 49.8953 45.0643 49.7753C45.6715 49.6553 46.3019 49.5954 46.9508 49.5954C47.4607 49.5954 47.8871 49.6553 48.2347 49.7753C48.5824 49.8953 48.8605 50.066 49.0644 50.2921C49.2684 50.5182 49.412 50.7905 49.5001 51.1088C49.5882 51.4272 49.6345 51.7825 49.6345 52.1701C49.6345 52.6408 49.616 53.1068 49.5789 53.5683C49.5418 54.0297 49.5233 54.5188 49.5233 55.0356C49.5233 55.3863 49.5465 55.7277 49.5928 56.06C49.6392 56.3922 49.7133 56.7106 49.8153 57.0151H48.2301L47.9103 55.9354H47.7434C47.5024 56.2584 47.1965 56.5352 46.8257 56.7659C46.4549 56.9967 45.9775 57.112 45.3934 57.112C45.0412 57.112 44.7167 57.0613 44.4247 56.9597C44.1327 56.8582 43.8824 56.7106 43.6738 56.5214C43.4652 56.3322 43.303 56.1107 43.1871 55.8523C43.0712 55.5939 43.0156 55.3125 43.0156 55.0079C43.0156 54.1866 43.2891 53.5636 43.8406 53.1437C44.3922 52.7238 45.2312 52.5162 46.3529 52.5162C46.6124 52.5162 46.872 52.5347 47.1316 52.5762C47.3912 52.6177 47.5719 52.65 47.6739 52.6685C47.7017 52.4747 47.7156 52.3086 47.7156 52.1701C47.7156 51.8195 47.6275 51.5611 47.4514 51.3949C47.2752 51.2288 46.9462 51.1458 46.4641 51.1458C46.0191 51.1458 45.5835 51.1965 45.1617 51.3026C44.7399 51.4088 44.3691 51.5426 44.0446 51.6995L43.5301 50.2322ZM46.0748 55.5616C46.5105 55.5616 46.8581 55.4601 47.1177 55.2571C47.3772 55.0541 47.5673 54.8418 47.6878 54.6203V53.7897C47.6414 53.7713 47.5673 53.7528 47.4699 53.7344C47.3726 53.7159 47.266 53.6974 47.1501 53.679C47.0342 53.6605 46.9183 53.6467 46.8025 53.6375C46.6866 53.6283 46.5846 53.6236 46.4919 53.6236C45.9914 53.6236 45.6205 53.7113 45.3795 53.8913C45.1385 54.0712 45.018 54.2973 45.018 54.5649C45.018 54.8972 45.1107 55.1464 45.3007 55.3125C45.4907 55.4786 45.7503 55.5616 46.0748 55.5616Z" fill="#D2EFFE"/>
<path d="M56.3643 54.1912H53.5971V57.0013H51.6504V49.7338H53.5971V52.4331H56.3643V49.7338H58.311V57.0013H56.3643V54.1912Z" fill="#D2EFFE"/>
<path d="M65.1515 53.7205L65.235 52.4885L64.359 53.7067L61.4805 57.0013H60.3125V49.7338H62.2593V53.1529L62.1897 54.1496H62.3566C62.4678 53.9928 62.5791 53.8266 62.6949 53.6513C62.8108 53.476 62.9267 53.3098 63.038 53.1529L65.9302 49.7338H67.0983V57.0013H65.1515V53.7205Z" fill="#D2EFFE"/>
<path d="M75.3442 56.3369C75.029 56.5768 74.598 56.7798 74.0557 56.9505C73.5133 57.1213 72.9339 57.2089 72.3128 57.2089C71.0613 57.2089 70.1436 56.8675 69.5596 56.1846C68.9756 55.5016 68.6836 54.565 68.6836 53.3745C68.6836 52.1102 69.0127 51.1504 69.6709 50.4998C70.329 49.8492 71.256 49.5262 72.4519 49.5262C72.8412 49.5262 73.226 49.5723 73.606 49.6692C73.9861 49.7661 74.3245 49.9276 74.6211 50.1537C74.9178 50.3798 75.1542 50.6844 75.3349 51.0674C75.5157 51.4503 75.6084 51.9256 75.6084 52.4885C75.6084 52.6823 75.5945 52.8946 75.5713 53.1253C75.5481 53.356 75.5111 53.596 75.4555 53.8451H70.5886C70.6349 54.4727 70.8157 54.9341 71.1355 55.234C71.4553 55.534 71.9791 55.6862 72.7022 55.6862C73.1379 55.6862 73.5272 55.6216 73.8749 55.4971C74.2225 55.3725 74.4914 55.2479 74.6768 55.1187L75.3442 56.3369ZM72.4241 51.0489C71.8493 51.0489 71.4229 51.2011 71.1448 51.5103C70.8667 51.8195 70.7045 52.2163 70.6581 52.6962H73.8007C73.8378 52.1886 73.7451 51.7872 73.5226 51.4918C73.3001 51.1965 72.9339 51.0489 72.4241 51.0489Z" fill="#D2EFFE"/>
<path d="M83.8273 53.9835H83.1459V57.0013H81.1992V49.7338H83.1459V52.8761L83.7717 52.6131L85.635 49.7338H87.7347C87.4103 50.1768 87.0904 50.6197 86.7798 51.0673C86.4693 51.5149 86.1588 51.9625 85.8436 52.4054L84.9258 53.0145L85.8992 53.6098C86.2514 54.1819 86.6084 54.7449 86.9699 55.3032C87.3314 55.8615 87.6883 56.4291 88.0406 57.0013H85.7879L83.8273 53.9835Z" fill="#D2EFFE"/>
<path d="M99.762 53.7759L99.9011 52.1978H99.6786L99.025 53.4437V53.4298L97.5511 55.6862H96.8697L95.2428 53.4298V53.4437L94.5892 52.1978H94.3946L94.6031 53.762V57.0013H92.8789V49.7338H94.923L96.7446 52.447V52.4331L97.2312 53.3606H97.3842L97.8709 52.4054V52.4193L99.5673 49.7338H101.611V57.0013H99.762V53.7759Z" fill="#D2EFFE"/>
<path d="M109.858 56.3369C109.543 56.5768 109.112 56.7798 108.569 56.9505C108.027 57.1213 107.448 57.2089 106.826 57.2089C105.575 57.2089 104.657 56.8675 104.073 56.1846C103.489 55.5016 103.197 54.565 103.197 53.3745C103.197 52.1102 103.526 51.1504 104.185 50.4998C104.843 49.8492 105.77 49.5262 106.966 49.5262C107.355 49.5262 107.74 49.5723 108.12 49.6692C108.5 49.7661 108.838 49.9276 109.135 50.1537C109.431 50.3798 109.668 50.6844 109.849 51.0674C110.029 51.4503 110.122 51.9256 110.122 52.4885C110.122 52.6823 110.108 52.8946 110.085 53.1253C110.062 53.356 110.025 53.596 109.969 53.8451H105.102C105.149 54.4727 105.329 54.9341 105.649 55.234C105.969 55.534 106.493 55.6862 107.216 55.6862C107.652 55.6862 108.041 55.6216 108.389 55.4971C108.736 55.3725 109.005 55.2479 109.19 55.1187L109.858 56.3369ZM106.938 51.0489C106.363 51.0489 105.937 51.2011 105.658 51.5103C105.38 51.8195 105.218 52.2163 105.172 52.6962H108.314C108.351 52.1886 108.259 51.7872 108.036 51.4918C107.814 51.1965 107.448 51.0489 106.938 51.0489Z" fill="#D2EFFE"/>
<path d="M116.253 51.4503H114.543C114.515 52.2255 114.455 52.9545 114.367 53.6375C114.279 54.3204 114.14 54.9156 113.945 55.4278C113.75 55.94 113.491 56.346 113.171 56.6414C112.851 56.9367 112.443 57.0843 111.943 57.0843C111.359 57.0843 110.946 57.0197 110.705 56.8905L110.983 55.174C111.141 55.2202 111.284 55.2432 111.414 55.2432C111.637 55.2432 111.831 55.1648 111.998 55.0079C112.165 54.851 112.304 54.5649 112.415 54.1543C112.527 53.7436 112.615 53.1852 112.684 52.4746C112.754 51.764 112.809 50.8504 112.847 49.7338H118.2V57.0013H116.253V51.4503Z" fill="#D2EFFE"/>
<path d="M119.785 53.3745C119.785 52.1748 120.105 51.2334 120.745 50.5505C121.384 49.8676 122.297 49.5262 123.484 49.5262C124.105 49.5262 124.647 49.6231 125.111 49.8169C125.574 50.0107 125.959 50.2783 126.265 50.6244C126.571 50.9705 126.798 51.3765 126.951 51.8426C127.104 52.3086 127.183 52.8208 127.183 53.3745C127.183 53.9651 127.099 54.4957 126.933 54.971C126.766 55.4463 126.525 55.8523 126.209 56.1846C125.894 56.5168 125.505 56.7706 125.046 56.9459C124.587 57.1213 124.068 57.2089 123.484 57.2089C122.854 57.2089 122.307 57.112 121.843 56.9182C121.38 56.7245 120.995 56.4522 120.689 56.1061C120.383 55.7601 120.156 55.354 120.008 54.888C119.859 54.4219 119.785 53.919 119.785 53.3745ZM121.788 53.3745C121.788 53.679 121.82 53.9651 121.885 54.2327C121.95 54.5004 122.047 54.7311 122.181 54.9295C122.316 55.1279 122.492 55.2894 122.705 55.4094C122.919 55.5293 123.178 55.5893 123.484 55.5893C124.615 55.5893 125.18 54.8511 125.18 53.3745C125.18 53.0515 125.148 52.7516 125.088 52.4793C125.027 52.2071 124.93 51.9718 124.796 51.7733C124.661 51.5749 124.485 51.4226 124.267 51.3119C124.049 51.2011 123.79 51.1458 123.484 51.1458C122.956 51.1458 122.538 51.3211 122.237 51.6718C121.936 52.0225 121.788 52.5901 121.788 53.3745Z" fill="#D2EFFE"/>
<path d="M130.298 49.7338V51.1596C130.298 51.5103 130.312 51.8056 130.345 52.0501C130.377 52.2947 130.437 52.4977 130.521 52.6546C130.604 52.8115 130.725 52.9223 130.882 52.9915C131.04 53.0607 131.244 53.0976 131.494 53.0976C131.8 53.0976 132.074 53.056 132.315 52.9776C132.556 52.8992 132.755 52.8069 132.912 52.6961V49.7338H134.859V57.0013H132.912V54.0389C132.81 54.1035 132.695 54.1727 132.565 54.2511C132.435 54.3296 132.282 54.4034 132.106 54.4726C131.93 54.5419 131.731 54.6018 131.508 54.648C131.286 54.6941 131.04 54.7172 130.771 54.7172C130.391 54.7172 130.048 54.6757 129.747 54.5972C129.445 54.5188 129.19 54.3803 128.982 54.1819C128.773 53.9835 128.616 53.7205 128.509 53.3929C128.403 53.0653 128.352 52.6546 128.352 52.1563V49.7338H130.298Z" fill="#D2EFFE"/>
<path d="M136.792 50.2322C137.209 50.0476 137.719 49.8953 138.326 49.7753C138.933 49.6553 139.564 49.5954 140.213 49.5954C140.722 49.5954 141.149 49.6553 141.496 49.7753C141.844 49.8953 142.122 50.066 142.326 50.2921C142.53 50.5182 142.674 50.7905 142.762 51.1088C142.85 51.4272 142.896 51.7825 142.896 52.1701C142.896 52.6408 142.878 53.1068 142.841 53.5683C142.804 54.0297 142.785 54.5188 142.785 55.0356C142.785 55.3863 142.808 55.7277 142.855 56.06C142.901 56.3922 142.975 56.7106 143.077 57.0151H141.492L141.172 55.9354H141.005C140.764 56.2584 140.458 56.5352 140.087 56.7659C139.717 56.9967 139.239 57.112 138.655 57.112C138.303 57.112 137.978 57.0613 137.686 56.9597C137.394 56.8582 137.144 56.7106 136.936 56.5214C136.727 56.3322 136.565 56.1107 136.449 55.8523C136.333 55.5939 136.277 55.3125 136.277 55.0079C136.277 54.1866 136.551 53.5636 137.102 53.1437C137.654 52.7238 138.493 52.5162 139.615 52.5162C139.874 52.5162 140.134 52.5347 140.393 52.5762C140.653 52.6177 140.834 52.65 140.936 52.6685C140.963 52.4747 140.977 52.3086 140.977 52.1701C140.977 51.8195 140.889 51.5611 140.713 51.3949C140.537 51.2288 140.208 51.1458 139.726 51.1458C139.281 51.1458 138.845 51.1965 138.423 51.3026C138.002 51.4088 137.631 51.5426 137.306 51.6995L136.792 50.2322ZM139.337 55.5616C139.772 55.5616 140.12 55.4601 140.379 55.2571C140.639 55.0541 140.829 54.8418 140.949 54.6203V53.7897C140.903 53.7713 140.829 53.7528 140.732 53.7344C140.634 53.7159 140.528 53.6974 140.412 53.679C140.296 53.6605 140.18 53.6467 140.064 53.6375C139.948 53.6283 139.846 53.6236 139.754 53.6236C139.253 53.6236 138.882 53.7113 138.641 53.8913C138.4 54.0712 138.28 54.2973 138.28 54.5649C138.28 54.8972 138.372 55.1464 138.562 55.3125C138.752 55.4786 139.012 55.5616 139.337 55.5616Z" fill="#D2EFFE"/>
<path d="M151.795 53.7759L151.934 52.1978H151.712L151.058 53.4437V53.4298L149.584 55.6862H148.903L147.276 53.4298V53.4437L146.622 52.1978H146.428L146.636 53.762V57.0013H144.912V49.7338H146.956L148.778 52.447V52.4331L149.264 53.3606H149.417L149.904 52.4054V52.4193L151.601 49.7338H153.645V57.0013H151.795V53.7759Z" fill="#D2EFFE"/>
</svg>
