<svg width="34" height="27" viewBox="0 0 34 27" fill="none" xmlns="http://www.w3.org/2000/svg">
<path d="M16.5712 14.781L2.35259 26.1473C2.09963 26.3496 1.78884 26.4579 1.42023 26.4723C1.05162 26.4868 0.722763 26.3784 0.433657 26.1473C0.144552 25.9162 0 25.6606 0 25.3803C0 25.1001 0.144552 24.8444 0.433657 24.6133L14.6522 13.247L0.433657 1.88067C0.18069 1.67844 0.045172 1.43 0.0271029 1.13533C0.00903387 0.840666 0.144552 0.577777 0.433657 0.346666C0.722763 0.115555 1.04259 0 1.39313 0C1.74367 0 2.06349 0.115555 2.35259 0.346666L16.5712 11.713L30.7897 0.346666C31.0427 0.144444 31.3544 0.0361106 31.7248 0.0216661C32.0916 0.00722168 32.4195 0.115555 32.7086 0.346666C32.9978 0.577777 33.1423 0.833444 33.1423 1.11367C33.1423 1.39389 32.9978 1.64956 32.7086 1.88067L18.4901 13.247L32.7086 24.6133C32.9616 24.8156 33.0971 25.0647 33.1152 25.3608C33.1333 25.6541 32.9978 25.9162 32.7086 26.1473C32.4195 26.3784 32.0997 26.494 31.7492 26.494C31.3986 26.494 31.0788 26.3784 30.7897 26.1473L16.5712 14.781Z" fill="white"/>
</svg>
