<svg width="149" height="49" viewBox="0 0 149 49" fill="none" xmlns="http://www.w3.org/2000/svg">
<path d="M18.5838 9.08827H9.37953V26.8532H4.74609V5.03664H18.5838V9.08827Z" fill="white"/>
<path d="M32.7987 9.08828H27.7583C27.654 11.0622 27.5444 12.8438 27.4296 14.4333C27.3148 16.0228 27.1583 17.4513 26.96 18.7187C26.7617 19.9862 26.4956 21.1133 26.1617 22.1003C25.8277 23.0872 25.4103 23.9547 24.9094 24.7027C24.5754 25.1806 24.205 25.5753 23.798 25.887C23.391 26.1987 22.9683 26.4428 22.53 26.6194C22.0917 26.796 21.6639 26.9207 21.2464 26.9934C20.829 27.0661 20.4429 27.1025 20.0881 27.1025C19.5454 27.1025 19.1228 27.0609 18.8202 26.9778C18.5175 26.8947 18.1888 26.7701 17.834 26.6038L18.3349 22.7392C18.5645 22.8223 18.8358 22.8639 19.1489 22.8639C19.5037 22.8639 19.8585 22.7807 20.2133 22.6145C20.5681 22.4483 20.8812 22.1782 21.1525 21.8042C21.4865 21.3471 21.7839 20.6926 22.0448 19.8407C22.3057 18.9888 22.5248 17.8824 22.7022 16.5215C22.8796 15.1605 23.0257 13.5347 23.1405 11.6439C23.2553 9.75316 23.3336 7.55074 23.3753 5.03664H37.4322V26.8532H32.7987V9.08828Z" fill="white"/>
<path d="M53.2713 22.2094H45.8828L44.0983 26.8532H39.4648L48.0429 4.88083H51.4554L60.0648 26.8532H55.1497L53.2713 22.2094ZM47.1664 18.5629H52.1755L50.4849 14.0126L49.7336 10.5531H49.577L48.8256 14.0438L47.1664 18.5629Z" fill="white"/>
<path d="M78.1308 10.1791C78.1308 10.7193 78.0525 11.2544 77.8959 11.7842C77.7394 12.314 77.4942 12.8075 77.1602 13.2646C76.8263 13.7217 76.388 14.1165 75.8454 14.4489C75.3027 14.7814 74.6453 15.0203 73.873 15.1658V15.3528C74.5618 15.4151 75.2088 15.5709 75.8141 15.8203C76.4193 16.0696 76.9463 16.4176 77.395 16.8643C77.8438 17.3111 78.1986 17.8513 78.4595 18.485C78.7204 19.1187 78.8508 19.8615 78.8508 20.7134C78.8508 21.8562 78.5847 22.8327 78.0525 23.6431C77.5203 24.4534 76.8263 25.1183 75.9706 25.6377C75.1149 26.1571 74.1339 26.5415 73.0277 26.7909C71.9215 27.0402 70.7945 27.1649 69.6466 27.1649C69.2709 27.1649 68.7752 27.1649 68.1595 27.1649C67.5438 27.1649 66.8863 27.1493 66.1872 27.1181C65.488 27.0869 64.7783 27.0402 64.0583 26.9779C63.3382 26.9155 62.686 26.822 62.1016 26.6974V5.19249C62.5399 5.13016 63.0356 5.06783 63.5887 5.00549C64.1418 4.94316 64.7366 4.89122 65.3732 4.84967C66.0098 4.80811 66.662 4.77694 67.3299 4.75616C67.9977 4.73538 68.6656 4.72499 69.3335 4.72499C70.4188 4.72499 71.4832 4.80292 72.5268 4.95875C73.5704 5.11458 74.5096 5.39507 75.3444 5.80024C76.1793 6.2054 76.8524 6.7612 77.3637 7.46764C77.8751 8.17408 78.1308 9.0779 78.1308 10.1791ZM69.584 23.4249C70.1684 23.4249 70.7267 23.3729 71.2589 23.269C71.7911 23.1652 72.2607 22.9937 72.6677 22.7548C73.0747 22.5159 73.3982 22.2146 73.6382 21.851C73.8782 21.4874 73.9983 21.0354 73.9983 20.4952C73.9983 19.8303 73.8522 19.3005 73.56 18.9057C73.2678 18.511 72.8869 18.2149 72.4172 18.0175C71.9476 17.8201 71.4258 17.6954 70.8519 17.6435C70.2779 17.5915 69.6987 17.5656 69.1143 17.5656H66.5472V23.2379C66.6724 23.2794 66.855 23.3106 67.095 23.3314C67.3351 23.3522 67.6012 23.3677 67.8934 23.3781C68.1856 23.3885 68.483 23.3989 68.7856 23.4093C69.0883 23.4197 69.3544 23.4249 69.584 23.4249ZM68.1125 14.1373C68.4256 14.1373 68.7961 14.1321 69.2239 14.1217C69.6518 14.1113 70.0118 14.0853 70.304 14.0438C71.1806 13.7737 71.9215 13.4049 72.5268 12.9374C73.1321 12.4699 73.4347 11.831 73.4347 11.0206C73.4347 10.4804 73.3199 10.0441 73.0903 9.71164C72.8608 9.3792 72.5529 9.11947 72.1668 8.93247C71.7806 8.74547 71.3476 8.62081 70.8675 8.55848C70.3875 8.49615 69.897 8.46497 69.3961 8.46497C68.7908 8.46497 68.2377 8.47537 67.7368 8.49614C67.2359 8.51692 66.8394 8.54808 66.5472 8.58963V14.1373H68.1125Z" fill="white"/>
<path d="M100.639 15.9137L101.14 11.3946H100.952L99.4495 14.8229L94.3777 22.9574H92.9376L87.5528 14.7917L86.0813 11.4258H85.8935L86.551 15.8826V26.8532H82.168V5.03664H86.3631L92.6871 15.1034L93.8768 17.5032H94.0333L95.0665 15.0411L101.109 5.03664H105.273V26.8532H100.639V15.9137Z" fill="white"/>
<path d="M109.342 5.03664H123.461V9.08827H113.975V13.8256H122.585V17.8772H113.975V22.8015H123.618V26.8532H109.342V5.03664Z" fill="white"/>
<path d="M132.668 15.7579L126.031 5.03664H131.635L135.297 11.2388L136.143 13.3892L136.957 11.2388L140.776 5.03664H145.817L138.929 15.5397L146.161 26.8532H140.62L136.424 20.2147L135.485 17.9707L134.577 20.2147L130.382 26.8532H125.342L132.668 15.7579Z" fill="white"/>
<path d="M10.0237 36.7647C10.0237 36.9426 9.99625 37.117 9.94471 37.2915C9.89317 37.4659 9.81415 37.6301 9.70419 37.7806C9.59424 37.9311 9.44993 38.0611 9.27126 38.1705C9.09259 38.28 8.87612 38.3587 8.62186 38.4066V38.4681C8.84863 38.4886 9.06165 38.54 9.26094 38.6221C9.46022 38.7042 9.63202 38.817 9.77977 38.9641C9.92752 39.1112 10.0444 39.2891 10.1303 39.4977C10.2162 39.7064 10.2608 39.9526 10.2608 40.2331C10.2608 40.6094 10.1715 40.9309 9.99625 41.1977C9.82101 41.4645 9.59425 41.6834 9.3125 41.8545C9.03075 42.0255 8.70775 42.152 8.34354 42.2341C7.97933 42.3162 7.60825 42.3573 7.2303 42.3573C7.1066 42.3573 6.94168 42.3573 6.73896 42.3573C6.53624 42.3573 6.31976 42.3504 6.08955 42.3402C5.85934 42.3299 5.62569 42.3162 5.38861 42.2957C5.15153 42.2752 4.93851 42.2444 4.74609 42.2033V35.1228C4.8904 35.1023 5.05189 35.0818 5.23399 35.0613C5.4161 35.0408 5.61194 35.0237 5.82154 35.01C6.03113 34.9963 6.24761 34.986 6.46751 34.9792C6.68741 34.9723 6.90732 34.9689 7.12722 34.9689C7.48456 34.9689 7.83503 34.9929 8.17862 35.0442C8.52222 35.0955 8.83145 35.1878 9.10632 35.3212C9.3812 35.4546 9.60111 35.6393 9.76947 35.8719C9.93783 36.1045 10.0237 36.4021 10.0237 36.7647ZM7.20966 41.1259C7.40208 41.1259 7.5842 41.1088 7.75943 41.0746C7.93467 41.0404 8.08929 40.9822 8.22329 40.9036C8.3573 40.8249 8.46379 40.7257 8.54282 40.6059C8.62185 40.4862 8.66309 40.3392 8.66309 40.1613C8.66309 39.9424 8.61499 39.7679 8.51878 39.6379C8.42258 39.508 8.29544 39.4088 8.14082 39.3438C7.98621 39.2788 7.8144 39.2377 7.62542 39.2206C7.43645 39.2035 7.24747 39.1967 7.05505 39.1967H6.20982V41.0643C6.25106 41.078 6.30945 41.0883 6.38847 41.0951C6.4675 41.1019 6.55685 41.1054 6.65306 41.1088C6.74926 41.1122 6.84547 41.1156 6.94511 41.119C7.04475 41.1225 7.13407 41.1259 7.20966 41.1259ZM6.7252 38.0679C6.82828 38.0679 6.94854 38.0645 7.08942 38.0611C7.23029 38.0577 7.35054 38.0508 7.44675 38.0371C7.73537 37.9482 7.97934 37.8251 8.17862 37.6712C8.37791 37.5172 8.47755 37.3086 8.47755 37.0418C8.47755 36.8639 8.43976 36.7202 8.36417 36.6108C8.28858 36.5013 8.18548 36.4158 8.05835 36.3542C7.93122 36.2927 7.79035 36.2516 7.63229 36.2311C7.47424 36.2106 7.31275 36.2003 7.14783 36.2003C6.94854 36.2003 6.76644 36.2037 6.60152 36.2106C6.43659 36.2174 6.30603 36.2277 6.20982 36.2414V38.0679H6.7252Z" fill="white"/>
<path d="M14.9202 40.1715H12.8689V42.2547H11.4258V36.8673H12.8689V38.8683H14.9202V36.8673H16.3633V42.2547H14.9202V40.1715Z" fill="white"/>
<path d="M21.4348 39.8227L21.4967 38.9094L20.8473 39.8124L18.7135 42.2547H17.8477V36.8673H19.2908V39.4019L19.2392 40.1408H19.3629C19.4454 40.0245 19.5278 39.9013 19.6137 39.7714C19.6996 39.6414 19.7856 39.5182 19.868 39.4019L22.0121 36.8673H22.8779V42.2547H21.4348V39.8227Z" fill="white"/>
<path d="M29.4637 39.8637L29.5668 38.6939H29.4019L28.9174 39.6174V39.6072L27.8248 41.2798H27.3197L26.1137 39.6072V39.6174L25.6292 38.6939H25.4849L25.6395 39.8535V42.2547H24.3613V36.8673H25.8766L27.2269 38.8786V38.8683L27.5877 39.5558H27.7011L28.0618 38.8478V38.8581L29.3194 36.8673H30.8347V42.2547H29.4637V39.8637Z" fill="white"/>
<path d="M32.2681 37.2368C32.5773 37.0999 32.9553 36.987 33.4054 36.8981C33.8555 36.8092 34.3228 36.7647 34.8039 36.7647C35.1818 36.7647 35.4979 36.8092 35.7556 36.8981C36.0133 36.987 36.2195 37.1136 36.3707 37.2812C36.5218 37.4488 36.6283 37.6506 36.6936 37.8867C36.7589 38.1227 36.7933 38.3861 36.7933 38.6734C36.7933 39.0223 36.7795 39.3678 36.752 39.7098C36.7246 40.0519 36.7108 40.4144 36.7108 40.7975C36.7108 41.0575 36.728 41.3106 36.7623 41.5569C36.7967 41.8032 36.8517 42.0392 36.9273 42.2649H35.7522L35.5151 41.4645H35.3914C35.2127 41.704 34.986 41.9092 34.7111 42.0802C34.4362 42.2512 34.0823 42.3368 33.6494 42.3368C33.3882 42.3368 33.1477 42.2991 32.9312 42.2239C32.7148 42.1486 32.5292 42.0392 32.3746 41.899C32.22 41.7587 32.0997 41.5945 32.0138 41.403C31.9279 41.2114 31.8867 41.0028 31.8867 40.777C31.8867 40.1682 32.0894 39.7064 32.4983 39.3951C32.9072 39.0838 33.5291 38.9299 34.3606 38.9299C34.553 38.9299 34.7454 38.9436 34.9379 38.9744C35.1303 39.0052 35.2643 39.0291 35.3399 39.0428C35.3605 38.8991 35.3708 38.776 35.3708 38.6734C35.3708 38.4134 35.3055 38.2219 35.1749 38.0987C35.0443 37.9756 34.8004 37.914 34.4431 37.914C34.1132 37.914 33.7902 37.9516 33.4776 38.0303C33.1649 38.109 32.89 38.2082 32.6495 38.3245L32.2681 37.2368ZM34.1544 41.1875C34.4774 41.1875 34.7351 41.1122 34.9275 40.9617C35.1199 40.8112 35.2608 40.6539 35.3502 40.4897V39.874C35.3158 39.8603 35.2608 39.8466 35.1887 39.8329C35.1165 39.8193 35.0375 39.8056 34.9516 39.7919C34.8657 39.7782 34.7798 39.768 34.6939 39.7611C34.608 39.7543 34.5324 39.7508 34.4637 39.7508C34.0926 39.7508 33.8177 39.8158 33.639 39.9492C33.4604 40.0826 33.3711 40.2502 33.3711 40.4486C33.3711 40.6949 33.4398 40.8796 33.5806 41.0028C33.7215 41.1259 33.9139 41.1875 34.1544 41.1875Z" fill="white"/>
<path d="M41.7834 40.1715H39.7322V42.2547H38.2891V36.8673H39.7322V38.8683H41.7834V36.8673H43.2265V42.2547H41.7834V40.1715Z" fill="white"/>
<path d="M48.2961 39.8227L48.358 38.9094L47.7086 39.8124L45.5748 42.2547H44.709V36.8673H46.1521V39.4019L46.1006 40.1408H46.2243C46.3067 40.0245 46.3892 39.9013 46.4751 39.7714C46.561 39.6414 46.6469 39.5182 46.7293 39.4019L48.8734 36.8673H49.7392V42.2547H48.2961V39.8227Z" fill="white"/>
<path d="M55.8515 41.7621C55.6179 41.94 55.2983 42.0905 54.8963 42.2171C54.4943 42.3436 54.0648 42.4086 53.6044 42.4086C52.6767 42.4086 51.9964 42.1555 51.5634 41.6492C51.1305 41.143 50.9141 40.4487 50.9141 39.5662C50.9141 38.6289 51.158 37.9175 51.6459 37.4352C52.1338 36.9529 52.821 36.7134 53.7075 36.7134C53.9961 36.7134 54.2813 36.7476 54.563 36.8195C54.8448 36.8913 55.0956 37.011 55.3155 37.1786C55.5354 37.3462 55.7107 37.572 55.8447 37.8559C55.9787 38.1398 56.0474 38.4921 56.0474 38.9094C56.0474 39.0531 56.0371 39.2104 56.0199 39.3815C56.0027 39.5525 55.9752 39.7303 55.934 39.915H52.3262C52.3606 40.3802 52.4946 40.7223 52.7317 40.9446C52.9687 41.167 53.357 41.2798 53.893 41.2798C54.216 41.2798 54.5046 41.232 54.7623 41.1396C55.02 41.0473 55.2193 40.9549 55.3568 40.8591L55.8515 41.7621ZM53.6869 37.8422C53.2608 37.8422 52.9447 37.9551 52.7385 38.1842C52.5324 38.4134 52.4121 38.7076 52.3778 39.0633H54.7073C54.7348 38.6871 54.6661 38.3895 54.5012 38.1706C54.3363 37.9517 54.0648 37.8422 53.6869 37.8422Z" fill="white"/>
<path d="M62.1416 40.0176H61.6365V42.2547H60.1934V36.8673H61.6365V39.1967L62.1003 39.0017L63.4816 36.8673H65.0381C64.7976 37.1957 64.5605 37.5241 64.3302 37.8559C64.1 38.1877 63.8698 38.5194 63.6362 38.8478L62.9559 39.2993L63.6774 39.7406C63.9385 40.1647 64.2031 40.582 64.4711 40.9959C64.7391 41.4098 65.0037 41.8305 65.2648 42.2547H63.5949L62.1416 40.0176Z" fill="white"/>
<path d="M73.952 39.8637L74.0551 38.6939H73.8902L73.4057 39.6174V39.6072L72.313 41.2798H71.8079L70.6019 39.6072V39.6174L70.1174 38.6939H69.9732L70.1278 39.8535V42.2547H68.8496V36.8673H70.3649L71.7152 38.8786V38.8683L72.076 39.5558H72.1894L72.5501 38.8478V38.8581L73.8077 36.8673H75.3229V42.2547H73.952V39.8637Z" fill="white"/>
<path d="M81.4375 41.7621C81.2038 41.94 80.8843 42.0905 80.4823 42.2171C80.0803 42.3436 79.6507 42.4086 79.1903 42.4086C78.2626 42.4086 77.5823 42.1555 77.1494 41.6492C76.7164 41.143 76.5 40.4487 76.5 39.5662C76.5 38.6289 76.7439 37.9175 77.2319 37.4352C77.7198 36.9529 78.4069 36.7134 79.2934 36.7134C79.582 36.7134 79.8672 36.7476 80.149 36.8195C80.4307 36.8913 80.6815 37.011 80.9014 37.1786C81.1213 37.3462 81.2966 37.572 81.4306 37.8559C81.5646 38.1398 81.6333 38.4921 81.6333 38.9094C81.6333 39.0531 81.623 39.2104 81.6058 39.3815C81.5886 39.5525 81.5612 39.7303 81.5199 39.915H77.9122C77.9465 40.3802 78.0805 40.7223 78.3176 40.9446C78.5547 41.167 78.9429 41.2798 79.4789 41.2798C79.8019 41.2798 80.0906 41.232 80.3483 41.1396C80.606 41.0473 80.8053 40.9549 80.9427 40.8591L81.4375 41.7621ZM79.2728 37.8422C78.8467 37.8422 78.5306 37.9551 78.3245 38.1842C78.1183 38.4134 77.9981 38.7076 77.9637 39.0633H80.2933C80.3208 38.6871 80.252 38.3895 80.0871 38.1706C79.9222 37.9517 79.6508 37.8422 79.2728 37.8422Z" fill="white"/>
<path d="M86.1773 38.1398H84.9094C84.8888 38.7144 84.8441 39.2549 84.7788 39.7611C84.7136 40.2673 84.6105 40.7086 84.4662 41.0883C84.3219 41.4679 84.1295 41.769 83.8924 41.9879C83.6553 42.2068 83.3529 42.3162 82.9818 42.3162C82.5489 42.3162 82.2431 42.2683 82.0645 42.1726L82.2706 40.9001C82.3874 40.9343 82.4939 40.9514 82.5902 40.9514C82.7551 40.9514 82.8994 40.8933 83.0231 40.777C83.1468 40.6607 83.2499 40.4486 83.3323 40.1442C83.4148 39.8398 83.4801 39.4259 83.5316 38.8991C83.5832 38.3723 83.6244 37.6951 83.6519 36.8673H87.6204V42.2547H86.1773V38.1398Z" fill="white"/>
<path d="M88.7969 39.5662C88.7969 38.6768 89.034 37.979 89.5081 37.4728C89.9823 36.9665 90.6592 36.7134 91.5388 36.7134C91.9992 36.7134 92.4012 36.7853 92.7448 36.9289C93.0884 37.0726 93.3736 37.271 93.6003 37.5275C93.8271 37.7841 93.9955 38.0851 94.1089 38.4305C94.2223 38.776 94.2807 39.1557 94.2807 39.5662C94.2807 40.004 94.2189 40.3973 94.0952 40.7496C93.9715 41.102 93.7928 41.403 93.5591 41.6492C93.3255 41.8955 93.0368 42.0837 92.6967 42.2136C92.3565 42.3436 91.9717 42.4086 91.5388 42.4086C91.0715 42.4086 90.666 42.3368 90.3224 42.1931C89.9788 42.0495 89.6937 41.8476 89.4669 41.5911C89.2401 41.3346 89.0718 41.0336 88.9618 40.6881C88.8519 40.3426 88.7969 39.9698 88.7969 39.5662ZM90.2812 39.5662C90.2812 39.7919 90.3053 40.004 90.3534 40.2024C90.4015 40.4008 90.4736 40.5718 90.5733 40.7189C90.6729 40.866 90.8035 40.9857 90.9615 41.0746C91.1196 41.1635 91.312 41.208 91.5388 41.208C92.3772 41.208 92.7963 40.6607 92.7963 39.5662C92.7963 39.3267 92.7723 39.1044 92.7276 38.9026C92.6829 38.7008 92.6108 38.5263 92.5111 38.3792C92.4115 38.2322 92.2809 38.1193 92.1194 38.0372C91.9579 37.9551 91.7656 37.914 91.5388 37.914C91.1471 37.914 90.8379 38.044 90.6145 38.304C90.3912 38.5639 90.2812 38.9847 90.2812 39.5662Z" fill="white"/>
<path d="M96.5896 36.8673V37.9243C96.5896 38.1842 96.5999 38.4031 96.6239 38.5844C96.648 38.7657 96.6926 38.9162 96.7545 39.0325C96.8163 39.1488 96.9057 39.2309 97.0225 39.2822C97.1393 39.3335 97.2905 39.3609 97.476 39.3609C97.7028 39.3609 97.9056 39.3301 98.0842 39.2719C98.2629 39.2138 98.4106 39.1454 98.5275 39.0633V36.8673H99.9706V42.2547H98.5275V40.0587C98.4519 40.1066 98.366 40.1579 98.2698 40.216C98.1736 40.2742 98.0602 40.3289 97.9296 40.3802C97.799 40.4315 97.6513 40.476 97.4864 40.5102C97.3214 40.5444 97.1393 40.5615 96.94 40.5615C96.6583 40.5615 96.404 40.5307 96.1807 40.4726C95.9574 40.4144 95.7683 40.3118 95.6137 40.1647C95.4591 40.0176 95.3423 39.8227 95.2633 39.5798C95.1843 39.3369 95.1465 39.0325 95.1465 38.6631V36.8673H96.5896Z" fill="white"/>
<path d="M101.403 37.2368C101.712 37.0999 102.09 36.987 102.54 36.8981C102.99 36.8092 103.458 36.7647 103.939 36.7647C104.317 36.7647 104.633 36.8092 104.89 36.8981C105.148 36.987 105.354 37.1136 105.505 37.2812C105.657 37.4488 105.763 37.6506 105.828 37.8867C105.894 38.1227 105.928 38.3861 105.928 38.6734C105.928 39.0223 105.914 39.3678 105.887 39.7098C105.859 40.0519 105.846 40.4144 105.846 40.7975C105.846 41.0575 105.863 41.3106 105.897 41.5569C105.932 41.8032 105.986 42.0392 106.062 42.2649H104.887L104.65 41.4645H104.526C104.348 41.704 104.121 41.9092 103.846 42.0802C103.571 42.2512 103.217 42.3368 102.784 42.3368C102.523 42.3368 102.282 42.2991 102.066 42.2239C101.85 42.1486 101.664 42.0392 101.509 41.899C101.355 41.7587 101.235 41.5945 101.149 41.403C101.063 41.2114 101.021 41.0028 101.021 40.777C101.021 40.1682 101.224 39.7064 101.633 39.3951C102.042 39.0838 102.664 38.9299 103.495 38.9299C103.688 38.9299 103.88 38.9436 104.073 38.9744C104.265 39.0052 104.399 39.0291 104.475 39.0428C104.495 38.8991 104.506 38.776 104.506 38.6734C104.506 38.4134 104.44 38.2219 104.31 38.0987C104.179 37.9756 103.935 37.914 103.578 37.914C103.248 37.914 102.925 37.9516 102.612 38.0303C102.3 38.109 102.025 38.2082 101.784 38.3245L101.403 37.2368ZM103.289 41.1875C103.612 41.1875 103.87 41.1122 104.062 40.9617C104.255 40.8112 104.396 40.6539 104.485 40.4897V39.874C104.451 39.8603 104.396 39.8466 104.323 39.8329C104.251 39.8193 104.172 39.8056 104.086 39.7919C104 39.7782 103.915 39.768 103.829 39.7611C103.743 39.7543 103.667 39.7508 103.598 39.7508C103.227 39.7508 102.953 39.8158 102.774 39.9492C102.595 40.0826 102.506 40.2502 102.506 40.4486C102.506 40.6949 102.575 40.8796 102.715 41.0028C102.856 41.1259 103.049 41.1875 103.289 41.1875Z" fill="white"/>
<path d="M112.524 39.8637L112.627 38.6939H112.462L111.978 39.6174V39.6072L110.885 41.2798H110.38L109.174 39.6072V39.6174L108.69 38.6939H108.545L108.7 39.8535V42.2547H107.422V36.8673H108.937L110.287 38.8786V38.8683L110.648 39.5558H110.762L111.122 38.8478V38.8581L112.38 36.8673H113.895V42.2547H112.524V39.8637Z" fill="white"/>
</svg>
