<svg width="39" height="41" viewBox="0 0 39 41" fill="none" xmlns="http://www.w3.org/2000/svg">
<path d="M19.3857 30.2393C13.4025 30.2393 8.53125 25.2431 8.53125 19.1065C8.53125 12.9699 13.4025 7.97368 19.3857 7.97368C25.3689 7.97368 30.2402 12.9699 30.2402 19.1065C30.2402 25.2431 25.3689 30.2393 19.3857 30.2393ZM19.3857 9.60287C14.2709 9.60287 10.1197 13.8714 10.1197 19.1065C10.1197 24.3416 14.2709 28.6101 19.3857 28.6101C24.5006 28.6101 28.6518 24.3416 28.6518 19.1065C28.6518 13.8714 24.5006 9.60287 19.3857 9.60287Z" fill="white"/>
<path d="M30.7589 31.7237C30.5229 31.7237 30.2868 31.6346 30.1005 31.4436L27.6159 28.8971C27.2556 28.5279 27.2556 27.9167 27.6159 27.5475C27.9762 27.1783 28.5725 27.1783 28.9327 27.5475L31.4173 30.094C31.7776 30.4632 31.7776 31.0743 31.4173 31.4436C31.231 31.6346 30.9949 31.7237 30.7589 31.7237Z" fill="white"/>
</svg>
