<svg width="20" height="20" viewBox="0 0 20 20" fill="none" xmlns="http://www.w3.org/2000/svg">
<path d="M9.40625 18.3125C4.49695 18.3125 0.5 14.3155 0.5 9.40625C0.5 4.49695 4.49695 0.5 9.40625 0.5C14.3155 0.5 18.3125 4.49695 18.3125 9.40625C18.3125 14.3155 14.3155 18.3125 9.40625 18.3125ZM9.40625 1.80335C5.20945 1.80335 1.80335 5.21814 1.80335 9.40625C1.80335 13.5944 5.20945 17.0091 9.40625 17.0091C13.603 17.0091 17.0091 13.5944 17.0091 9.40625C17.0091 5.21814 13.603 1.80335 9.40625 1.80335Z" fill="#0088CC"/>
<path d="M18.7381 19.5C18.5444 19.5 18.3507 19.4287 18.1978 19.2759L16.1592 17.2387C15.8636 16.9434 15.8636 16.4544 16.1592 16.159C16.4548 15.8637 16.9441 15.8637 17.2397 16.159L19.2783 18.1962C19.5739 18.4916 19.5739 18.9805 19.2783 19.2759C19.1254 19.4287 18.9317 19.5 18.7381 19.5Z" fill="#0088CC"/>
</svg>
